<?xml version="1.0" standalone="no"?>
<!DOCTYPE svg PUBLIC "-//W3C//DTD SVG 1.1//EN" "http://www.w3.org/Graphics/SVG/1.1/DTD/svg11.dtd" >
<svg xmlns="http://www.w3.org/2000/svg">
<metadata></metadata>
<defs>
<font id="allthatmattersmedium" horiz-adv-x="950" >
<font-face units-per-em="2048" ascent="1638" descent="-410" />
<missing-glyph horiz-adv-x="860" />
<glyph horiz-adv-x="2048" />
<glyph horiz-adv-x="2048" />
<glyph unicode="&#xd;" horiz-adv-x="681" />
<glyph unicode=" "  horiz-adv-x="860" />
<glyph unicode="&#x09;" horiz-adv-x="860" />
<glyph unicode="&#xa0;" horiz-adv-x="860" />
<glyph unicode="!" horiz-adv-x="231" d="M23.5 266.5q-5.5 22.5 1.5 73.5q10 76 10 269.5t5 345t28 178.5q29 31 51 28.5t59 -41.5q27 -29 31 -45t-8 -51q-20 -53 -21 -424v-371l-45 -20q-27 -12 -43 -9t-39.5 23.5t-29 43zM37 -78q20 39 69.5 31t75.5 -55q27 -49 7.5 -82t-72.5 -33q-51 0 -78 46t-2 93z" />
<glyph unicode="#" horiz-adv-x="1056" d="M25.5 624.5q13.5 24.5 64.5 34.5q55 12 65.5 44t-16.5 112q-23 74 -17.5 92.5t50.5 18.5q43 0 62.5 -28t19.5 -87q0 -70 22 -80q20 -6 106.5 28t96.5 52q6 8 -8 105.5t-6 115.5q14 41 72 2q61 -41 63 -98q2 -2 2 -6q0 -39 28.5 -53.5t63.5 8.5t58 22q18 0 55 18.5 t68.5 34t69.5 18.5t59 -26q29 -33 -6 -75.5t-91 -42.5q-59 -2 -159 -52l-101 -51l6 -90q4 -90 21 -106q10 -10 59 8t103.5 42.5t109.5 35t74 -14.5q25 -29 14 -55q-8 -23 -43 -39t-180 -72q-76 -27 -92.5 -41t-11.5 -51q4 -25 16 -66.5t25.5 -82.5t23.5 -82t8 -74t-22 -49 q-63 -51 -109 61q-23 61 -35 156q-12 98 -28.5 114.5t-100.5 -20.5q-57 -25 -71.5 -40t-12.5 -56q0 -61 35 -162q25 -68 25 -89t-21 -44q-25 -27 -60.5 -30t-41.5 22q-6 16 -17.5 91t-23.5 141.5t-16 70.5q-8 8 -84 -25l-74 -34l-37 45q-72 88 37 110q63 14 88 41t25 86 q0 63 -24 84t-87 12q-43 -6 -59.5 0.5t-30.5 30.5q-23 41 -9.5 65.5zM328 532q0 -61 30 -98q25 -27 39.5 -26.5t71.5 26.5q55 25 66.5 41.5t11.5 67.5q-1 73 -21 110q-16 33 -32.5 31t-87.5 -45q-51 -29 -64.5 -47.5t-13.5 -59.5z" />
<glyph unicode="$" horiz-adv-x="929" d="M25 614q-8 39 1 66t46 72q51 63 156.5 145t144.5 88q27 2 35 29.5t10 72.5t10 70q14 41 74 10q59 -29 67 -80q4 -39 60 -57q66 -20 94.5 -56t44.5 -116q23 -98 0 -121q-25 -25 -53.5 -2t-46.5 78q-20 63 -52 82q-53 33 -67 -43q-8 -47 -10 -150v-170l118 -20 q109 -16 177.5 -53t74.5 -78q12 -92 -233 -279l-137 -102l-11 -164q-6 -111 -13 -138.5t-34 -31.5q-41 -4 -60.5 29t-23.5 125q-6 109 -24 106q-227 -39 -279 6q-37 33 -47 82t16 80q18 27 26.5 25t33.5 -33q23 -29 43 -35t78 2q33 4 51 7t37.5 9.5t28 10.5t18.5 16.5 t12 23.5t5 33.5t2 42t-1 56.5l-6 149l-133 31q-115 27 -169 69t-64 113zM164 625q0 -27 50 -53.5t114 -32.5l63 -7l6 150q4 152 -18 152q-29 0 -122 -91.5t-93 -117.5zM529.5 292q0.5 -79 13.5 -87q10 -6 62 28.5t96 75.5t36 49q-16 14 -100 25.5t-96 1.5q-12 -14 -11.5 -93 z" />
<glyph unicode="%" horiz-adv-x="1284" d="M21.5 633.5q-5.5 58.5 33.5 148.5q51 121 160 148q53 14 84 9t70 -34q35 -23 44 -45t9 -74q0 -80 -22.5 -120.5t-106.5 -106.5q-82 -63 -121 -68.5t-94 41.5q-51 43 -56.5 101.5zM172 -118.5q16 67.5 117 224.5q31 45 55.5 79t37.5 49.5t23.5 26.5t13.5 16.5t3 11.5 q0 18 47 65t161.5 200t166.5 237l135 210q37 61 59.5 66.5t65.5 -35.5q16 -16 24.5 -26.5t13.5 -20.5t0 -21.5t-12.5 -23.5t-25 -34.5t-37 -47t-49 -65.5t-60.5 -86q-82 -123 -227 -316.5t-240.5 -327t-111.5 -182.5q-25 -74 -50.5 -93t-68.5 1q-57 25 -41 92.5zM190 688.5 q0 -16.5 11 -18.5q25 0 68.5 47t33.5 61q-12 20 -36.5 19.5t-41.5 -21.5q-14 -18 -24.5 -44.5t-10.5 -43zM835.5 317.5q14.5 51.5 100.5 135.5q74 72 101.5 82t68.5 -21q37 -27 65 -27q29 0 61 -32.5t32 -61.5q0 -31 -53.5 -139.5t-80.5 -130.5q-29 -23 -124 -17 q-72 4 -91.5 15.5t-50.5 68.5q-43 76 -28.5 127.5zM1024 260q25 -14 57 16q37 34 27 50q-12 18 -38 13t-44 -28q-31 -37 -2 -51z" />
<glyph unicode="&#x26;" horiz-adv-x="931" d="M23.5 -237q-0.5 24 21.5 83q23 59 54.5 104.5t51 65t29.5 45t-3 60.5t-52 96q-41 61 -63.5 106.5t-35 94.5t0 87t50 76.5t105.5 73.5q57 29 93 38t79 3q61 -8 90 -28.5t58 -73.5q35 -68 23.5 -152t-70.5 -200q-74 -147 -74 -157.5t92 -82.5l92 -70l56 54q55 53 75 92 q57 104 102.5 174t57.5 70q18 0 39 -43q12 -25 8 -53.5t-29 -88.5q-43 -98 -71 -135q-35 -41 -63.5 -90t-28.5 -66q0 -8 9 -17t21 -13q53 -20 111.5 -65.5t58.5 -65.5q0 -29 -21.5 -52.5t-45.5 -23.5q-16 0 -76.5 36t-124.5 81q-23 18 -115 -58l-90 -78h-348l-39 86 q-27 63 -27.5 87zM162 434q0 -41 35.5 -94t35.5 -68q0 -20 27 -41q20 -16 50 25t50.5 107.5t16.5 119.5q-4 57 -12.5 72.5t-40.5 17.5q-51 6 -107.5 -42t-54.5 -97zM196.5 -291q34.5 -43 125.5 -2q82 37 126 81t23 69q-20 26 -45 26q-16 0 -33.5 21.5t-33 41t-35 27 t-49 -22.5t-66.5 -104q-47 -94 -12.5 -137z" />
<glyph unicode="'" horiz-adv-x="382" d="M20 680q4 49 86 156q66 90 92.5 162.5t4.5 109.5q-18 29 -20 65t12 50q20 23 62 10.5t69 -49.5q33 -45 37 -101.5t-21 -105.5q-29 -53 -127 -173t-125 -134q-74 -39 -70 10z" />
<glyph unicode="(" horiz-adv-x="749" d="M25 92q-14 76 20.5 253t89.5 302q33 78 33 94q0 39 119 203t141 164q25 0 74 -32t49 -48q0 -14 -33 -45t-77 -75t-64 -81q-135 -258 -135 -290q0 -18 -18.5 -68.5t-37 -129.5t-18.5 -167q0 -168 72.5 -236.5t304.5 -115.5q186 -39 184 -84q0 -12 -16 -29q-20 -20 -52 -20 t-149 18q-242 39 -348.5 124t-138.5 263z" />
<glyph unicode=")" horiz-adv-x="579" d="M23 1097q-11 49 12 72q12 10 23.5 10.5t54.5 -10.5q37 -10 175 -174t210 -282q45 -76 54 -115t7 -158q0 -98 -8 -147t-33 -94q-39 -76 -39 -96.5t-77.5 -134t-135.5 -179.5q-66 -72 -116 -72q-55 0 -59.5 20.5t38.5 74.5q92 111 217 340q45 86 55.5 129t10.5 159l2 166 l-90 135q-156 240 -261 293q-29 14 -40 63z" />
<glyph unicode="*" horiz-adv-x="710" d="M23.5 658q11.5 40 66.5 44q51 4 55.5 14.5t-32.5 56.5t-36 71.5t40 52.5q33 20 52 52t26.5 48.5t28 14.5t63.5 -35q33 -27 45 -28t31.5 18.5t33 17.5t47.5 -29q45 -33 50.5 -75.5t-35.5 -65.5q-80 -43 14 -51q20 -4 51 -4q106 0 109 -25q0 -14 -27 -39q-27 -23 -22.5 -36 t51.5 -60q55 -57 56 -89t-50 -50q-31 -10 -57.5 -1t-85.5 52q-96 66 -123 66q-51 0 12 -199q29 -94 20.5 -130t-59.5 -36q-27 0 -57.5 54.5t-32.5 103.5q0 33 -16 59q-12 18 -21.5 16t-34.5 -22q-25 -23 -40 -24t-24 18.5t-16.5 44t-20.5 57.5t-32 51q-41 47 -29.5 87z" />
<glyph unicode="+" horiz-adv-x="880" d="M20 475q0 84 111 84q63 0 154 25l92 22l6 101q4 100 12 120q10 27 42 24t63 -30q33 -29 32 -100q0 -63 23 -76.5t59.5 4t76.5 37t82 14t71 -52.5q18 -33 17 -46t-21 -34q-23 -25 -127.5 -46t-132.5 -34l-54 -20l11 -182q8 -143 -4.5 -181t-67.5 -38q-45 0 -61.5 47 t-16.5 172q0 51 -1 75.5t-8 48t-14.5 29.5t-32 7t-48 -4t-72.5 -17q-100 -25 -145.5 -12.5t-45.5 63.5z" />
<glyph unicode="," horiz-adv-x="360" d="M20 -212q-4 34 66 93q84 74 93 153t-62 107q-45 16 -45 68.5t12 64.5q37 37 124 -17t120 -134q23 -47 10.5 -109.5t-41.5 -120t-82 -98.5t-113 -41q-78 0 -82 34z" />
<glyph unicode="-" d="M55 469q37 35 78 27q25 -8 115 3t218 30.5t198 25.5q104 9 114 25q29 45 113 -29q96 -84 -51 -113q-37 -8 -148 -18q-119 -12 -225.5 -30.5t-162.5 -32t-105 -22.5t-79 -6t-59 19q-76 51 -6 121z" />
<glyph unicode="." horiz-adv-x="235" d="M21 65.5q0 14.5 20 45.5q29 43 59.5 44t73.5 -38q39 -37 41 -56.5t-29 -52.5q-33 -37 -75.5 -32.5t-69.5 44.5q-20 31 -20 45.5z" />
<glyph unicode="/" horiz-adv-x="970" d="M23.5 -172q13.5 88 62.5 164q25 37 46.5 70.5t30.5 47t25.5 37t42.5 58.5q53 68 112.5 157t59.5 101q0 8 12.5 20.5t47.5 62.5t78 132q25 49 73 127t58 102q6 12 61 90t55 99q0 28 39 57q35 25 46.5 26t41.5 -16q43 -25 32 -74t-77 -137q-82 -109 -82 -131 q0 -12 -11 -23.5t-31.5 -37t-38.5 -60.5q-29 -59 -74 -131l-76 -129q-4 -6 -160.5 -249.5t-197.5 -335.5q-72 -160 -152 -129q-37 14 -23.5 102z" />
<glyph unicode="0" horiz-adv-x="1026" d="M23 266q8 117 42.5 200t127.5 204q70 90 116.5 134t112.5 81q23 14 38 21t34.5 8t28.5 -1t42 -8t58 -8q51 -8 92 -28.5t62.5 -37t33.5 -16.5q18 0 107 -96q63 -70 75.5 -97.5t12.5 -105.5q0 -213 -209 -418q-139 -135 -284.5 -177t-270.5 16q-100 49 -125 65t-58 66 q-29 41 -35 74.5t-1 123.5zM166 240q0 -80 8 -103.5t43 -46.5q57 -39 174 -35t178 49q137 96 210 185.5t100 191.5q25 98 -10 143t-189 119q-66 29 -91.5 31t-94.5 -20q-47 -16 -151.5 -130t-104.5 -153q0 -25 -36 -72t-36 -159z" />
<glyph unicode="1" horiz-adv-x="1177" d="M25 -8q-14 68 20.5 87t163.5 19q143 -2 181 13.5t46 76.5q16 106 23.5 401.5t-6 304.5t-80 -53.5t-79.5 -62.5t-45 -27.5t-61.5 -56t-69.5 -41t-69 20.5q-39 39 -10 108.5t86 69.5q37 0 162.5 103.5t154.5 154.5q25 49 63 49t73 -51q25 -33 26.5 -98.5t-14.5 -343.5 q-20 -399 -2 -449q12 -37 31.5 -44t107.5 -5q100 2 150.5 24.5t132.5 30.5q63 6 90.5 3t42.5 -21q23 -27 12 -45q-14 -20 -73.5 -48t-92.5 -28t-136 -28.5t-222 -45.5q-98 -14 -254 -41.5t-238 -34.5l-100 -6z" />
<glyph unicode="2" horiz-adv-x="1073" d="M20 733q-2 27 5 55q8 47 59 99.5t94 82t45 29.5q10 0 51 17.5t95.5 41t83.5 34.5q94 29 185 1t128 -96q14 -29 16 -73.5t-14 -113.5t-51 -147.5t-101.5 -180t-156.5 -201.5q-86 -96 -31 -95q14 0 39 11q47 16 274 20q166 2 202 -4t71 -41q49 -47 37 -78 q-10 -25 -56.5 -23.5t-138.5 8.5t-248 -22q-70 -12 -143.5 -23t-109.5 -16.5t-74.5 -14.5t-71.5 -23q-51 -23 -66.5 -21t-48.5 41q-41 47 -30.5 88t77.5 96q305 250 418 473q47 96 61.5 142.5t12.5 93.5q-4 55 -13.5 67.5t-52.5 16.5q-47 4 -116.5 -23.5t-85.5 -29.5 q-37 0 -112 -74t-97 -129q-33 -80 -82 -70q-47 10 -54 82z" />
<glyph unicode="3" horiz-adv-x="776" d="M28.5 37.5q18.5 15.5 94.5 11.5q68 -4 122 8.5t189 57.5q78 29 143.5 106.5t45.5 116.5q-37 70 -165 96.5t-235 -12.5q-92 -33 -119 -23q-23 8 -39 62.5t-4 75.5q8 16 115 51q84 27 188.5 96.5t167 138t39.5 90.5q-10 12 -147 13q-88 0 -122 -8.5t-69 -38.5 q-47 -39 -72.5 -43.5t-62.5 24.5q-23 14 -25.5 29.5t9.5 46.5q28 80 182 119q66 18 202 3.5t193 -42.5q100 -51 86 -124t-147 -206q-29 -29 -51.5 -54.5t-32.5 -42t-8 -18.5q10 -4 36.5 -10t61.5 -24.5t80 -57.5q51 -45 61.5 -70.5t10.5 -111.5q2 -84 -7.5 -111.5 t-50.5 -70.5q-63 -66 -167.5 -116t-204 -70.5t-183.5 -10.5t-108 57q-25 47 -6.5 62.5z" />
<glyph unicode="4" horiz-adv-x="1185" d="M23 410q10 41 167.5 236.5t190.5 209.5q14 4 24.5 14.5t10.5 18.5q-1 20 114 145q86 98 138.5 122t91.5 -15q18 -18 20 -62.5t-14 -77.5q-16 -31 -25 -247l-6 -217l82 10q57 4 140 18.5t132.5 21.5t57.5 1q25 -14 18.5 -76.5t-32.5 -77.5q-25 -12 -210.5 -27.5 t-195.5 -21.5q-23 -14 -18.5 -223t28.5 -254q27 -53 25 -75.5t-37 -41.5q-76 -43 -123 109q-37 117 -39 311v154l-69 -13q-68 -12 -248 -35q-129 -14 -159 -12t-48 27q-27 35 -16 78zM262 487q10 -18 73.5 -17t153.5 24l101 22l14 172q12 172 -3 187.5t-52 -17.5 q-55 -47 -176 -202.5t-111 -168.5z" />
<glyph unicode="5" horiz-adv-x="968" d="M23 43q-8 74 14 88t65 -37q31 -41 69 -44t153 28q61 16 161.5 92t118.5 119q20 47 6 68.5t-82 58.5q-74 37 -166 46t-178 -11q-115 -27 -139.5 16t27.5 182q23 59 37 148.5t23 148t20 66.5q16 10 328 17t335 30q12 12 50 2t63 -31q25 -18 18 -57q-4 -27 -32.5 -35 t-147.5 -14q-453 -29 -522 -228q-20 -53 -10 -67.5t69 -14.5q55 0 158.5 -26.5t169.5 -57.5q100 -47 127 -194q23 -119 -98 -236.5t-322 -173.5q-147 -39 -224 -11t-91 128z" />
<glyph unicode="6" horiz-adv-x="788" d="M23 238q8 129 36 194l70 164q27 61 59.5 109.5t50 70t17.5 31.5q0 18 109 133q76 80 102.5 96.5t75.5 12.5q45 -2 58 -12.5t17 -41.5t-7 -45t-50 -30q-51 -23 -141 -122.5t-90 -133.5q0 -29 -19 -41q-14 -8 -71.5 -130t-51.5 -128q2 -2 61.5 10t146.5 19t198 -17 q61 -14 117.5 -67.5t56.5 -98.5q0 -72 -71.5 -172t-169 -174t-167.5 -74q-88 0 -173 60.5t-128 156.5q-29 61 -35 103.5t-1 126.5zM183.5 60q41.5 -74 117.5 -97q21 -6 39 -6q39 0 61.5 13.5t36 26.5t29.5 13q10 0 37.5 25.5t56.5 58.5q39 51 49.5 75t-0.5 40 q-18 31 -159 37q-94 2 -124 -3t-57 -36q-41 -43 -71 -53q-57 -20 -15.5 -94z" />
<glyph unicode="7" horiz-adv-x="1044" d="M23 383q-6 55 23.5 78.5t115.5 34.5q78 8 132 26.5t99 18.5q66 0 92 45q16 23 29.5 85t15.5 108t-8 55q-10 0 -97 -27t-140 -47l-95 -35q-57 -23 -110 -16q-33 4 -43 16t-14 51q-6 59 15 78.5t112 34.5q117 18 193.5 39.5t101 36t43 24.5t36.5 10q16 0 29.5 14.5t35 27 t58.5 8.5q70 -6 79 -63.5t-36 -192.5q-68 -201 -39 -209q8 -2 21 2q23 10 131 28.5t176 24.5q31 2 41 -28.5t-12 -57.5q-20 -25 -162 -57l-195 -43q-35 -8 -49 -26.5t-29 -70.5q-25 -88 -50 -252.5t-23 -218.5q2 -55 -26 -80.5t-61.5 -6t-47.5 74.5q-8 14 -6.5 43t7 45 t16.5 71.5t19 121.5q18 145 23 170q4 16 -18 18q-8 2 -199 -6q-45 -2 -88 -4q-66 0 -79 7t-17 44z" />
<glyph unicode="8" horiz-adv-x="933" d="M25 145q8 76 48 144.5t126 154.5q74 76 73.5 106t-45.5 97q-51 78 -48 168t61 156q23 27 56 50.5t56 29.5q55 16 182.5 16t180.5 -14q47 -14 99 -64.5t77 -105.5q33 -76 18.5 -172.5t-57.5 -96.5q-27 0 -53 -41q-18 -27 -29.5 -30.5t-34.5 10.5q-27 14 -102.5 3 t-116.5 -38q-25 -16 -20.5 -57t34.5 -80q35 -47 35 -68.5t41 -72.5q25 -31 33 -66t8 -111q0 -80 -8 -110.5t-37 -61.5q-53 -55 -111.5 -78.5t-150.5 -25.5q-82 -4 -111.5 6t-89.5 57q-74 61 -100.5 129t-13.5 166zM130 71.5q3 -40.5 48 -83.5q33 -33 61.5 -41t100.5 -8 q86 0 119 18t69 86q12 25 9.5 50.5t-27.5 76.5q-37 82 -85 153.5t-69 71.5q-25 0 -93 -74.5t-99 -136.5q-37 -72 -34 -112.5zM332 822.5q-2 -25.5 12 -89.5q23 -100 39 -110q10 -4 42 9t91 36.5t121 31.5q66 10 85 20.5t30 43.5q18 51 -18 103.5t-97 64.5q-92 18 -174 3 t-111 -56q-18 -31 -20 -56.5z" />
<glyph unicode="9" horiz-adv-x="794" d="M23.5 728q15.5 75 55.5 148.5t106.5 141t140.5 104.5q82 39 100 39q23 2 79 -27.5t75.5 -53t79 -17.5t90.5 -14q25 -16 23.5 -72.5t-28.5 -325.5q-39 -375 -28 -530q18 -248 10 -271q-6 -16 -39 -18h-8q-59 -6 -74 23q-23 41 -10 321q2 33 4 82q16 381 8 389t-84 -57 q-158 -135 -285.5 -132t-199.5 144q-31 51 -15.5 126zM160 709q0 -72 26 -95q47 -39 141.5 3t172.5 128t80 158q0 39 -45.5 85t-75.5 46q-90 -2 -194.5 -116.5t-104.5 -208.5z" />
<glyph unicode=":" horiz-adv-x="217" d="M26 629.5q-13 38.5 7 77.5q23 41 71 32.5t74 -55.5q20 -35 18.5 -49t-30.5 -43q-25 -25 -41 -29t-45 10q-41 18 -54 56.5zM37 227q-6 59 14 86q35 41 90.5 12.5t55.5 -87.5q0 -41 -29 -61.5t-76 -16.5q-33 4 -43 16t-12 51z" />
<glyph unicode=";" horiz-adv-x="368" d="M31 -98q16 39 75 106l95 115l-11 123q-9 120 9 155q33 63 106 -14q27 -29 35 -60.5t8 -113.5t-9 -118t-40 -81q-135 -195 -223 -184q-76 8 -45 72zM125 704.5q0 28.5 29 59.5q55 63 127 -6q39 -35 42 -64.5t-30 -64.5q-31 -35 -74 -32t-67 40q-27 39 -27 67.5z" />
<glyph unicode="&#x3c;" horiz-adv-x="868" d="M20 435.5q-2 60.5 37 90.5q43 33 74 33q33 0 123 63.5t276 217.5q174 143 218 153q39 10 75 -41l8 -12q25 -35 10.5 -59.5t-77.5 -59.5q-33 -16 -99.5 -66t-164 -125t-162.5 -122l-86 -62l78 -79q45 -47 74.5 -70t76.5 -48.5t84 -49.5q61 -41 90 -41q33 0 100.5 -59.5 t67.5 -88.5q0 -37 -30.5 -54t-72.5 -7t-73 45t-56.5 35t-80.5 37l-107 73q-55 37 -65 37q-6 0 -58.5 34t-119 79t-97.5 61q-41 25 -43 85.5z" />
<glyph unicode="=" horiz-adv-x="837" d="M20 76v71l193 15q192 15 264 31q197 43 268 -15q72 -57 -6 -80q-23 -6 -241 -35q-127 -14 -217 -36q-141 -35 -201 -31q-43 4 -51.5 15.5t-8.5 64.5zM49 338q-27 51 1 82t100 31t272.5 36.5t228.5 40.5q76 8 106.5 3t47.5 -31q41 -63 -51 -90q-23 -6 -246 -39 q-84 -12 -150 -25q-176 -39 -233 -40t-76 32z" />
<glyph unicode="&#x3e;" horiz-adv-x="862" d="M31 -59q-20 33 1 66.5t99 90.5q145 106 263 205.5t151 140.5q41 55 26.5 81t-116.5 77l-144 76q-27 14 -60.5 29.5t-55 25.5t-45 22.5t-37 24t-21.5 26.5t-8 34.5t10 44.5q12 33 37 37t58.5 -12.5t66.5 -39t75 -47t70 -35.5q27 -8 151 -81.5t163 -73.5q37 0 82 -48 t45 -87q0 -14 -38 -51t-101.5 -90.5t-94.5 -84.5q-33 -33 -90 -75.5t-146 -105t-139 -99.5q-96 -72 -136 -82t-66 31z" />
<glyph unicode="?" horiz-adv-x="704" d="M20 980q0 15 19 62q18 41 34.5 58.5t44 31t48.5 31.5q45 39 150.5 59.5t213 1t142.5 -82.5q20 -37 9 -126t-42 -147l-55 -96q-23 -39 -158 -192l-137 -152l-10 -131q-10 -131 -7 -168q4 -43 -34 -41q-51 0 -93 57q-24 35 -24 74q0 47 -27.5 109.5t-27.5 77.5 q0 29 31.5 72.5t49.5 43.5t138.5 123t173.5 199q31 43 56.5 109.5t25.5 105.5q0 68 -109 61q-121 -6 -213 -82q-39 -33 -55 -69q-20 -53 -53 -60.5t-68 31.5q-23 25 -23 40zM214 -208.5q-5 38.5 30 77.5q31 33 55.5 31t50.5 -43q29 -45 24 -89t-37 -55.5t-77 11.5 q-41 29 -46 67.5z" />
<glyph unicode="@" horiz-adv-x="1286" d="M20 377q0 193 6.5 251t34.5 115q41 84 41 99q0 35 100.5 129t178.5 135q184 92 360 35q137 -43 227.5 -91.5t128.5 -94.5t54 -83.5t27.5 -78.5t25.5 -64q20 -25 25.5 -155t-8.5 -189q-39 -150 -69 -204t-87 -81q-53 -25 -74.5 -26.5t-68.5 18.5q-27 12 -65 42t-62 59 l-62 71l-92 -88q-78 -74 -130 -94.5t-122 -7.5q-90 16 -134 106t-19 209q10 49 31.5 88t70.5 88q84 88 170 144.5t147 64.5q47 8 70 -2t70 -59q66 -63 86 -142t-17 -118q-29 -33 -27.5 -62t33.5 -82q51 -86 123 -74.5t99 109.5q133 467 -179 631q-53 29 -99 37t-142 10 q-156 2 -239 -36t-167 -150q-61 -84 -85.5 -156t-41.5 -227q-25 -231 33.5 -360.5t212.5 -182.5q53 -18 171 -9t169 38q25 12 85 18t87 27q37 27 74 26.5t159 63.5q129 63 136 41q2 -8 -6 -29q-14 -43 -54.5 -76t-124.5 -71q-217 -102 -369.5 -138.5t-301.5 -19.5 q-215 23 -336 225q-39 63 -46.5 111.5t-7.5 259.5zM362 299q6 -57 37 -75.5t78 7.5q55 29 105.5 105t60.5 145q12 80 48 98.5t26 34.5q-27 43 -117 -10t-167 -148.5t-71 -156.5z" />
<glyph unicode="A" horiz-adv-x="935" d="M22 49q-2 9 -1 23q0 47 22 149q25 119 70 246t93 294t91 408q19 109 39 136q20 23 59 23h2q41 0 59.5 -24t45 -113t61.5 -215t66 -204q35 -90 35 -115q0 -10 13 -22t32 -21q39 -16 43 -26t-19 -45q-7 -13 -7 -31q0 -17 6 -39q13 -45 45 -112.5t42 -112.5q10 -37 40 -83 q31 -46 47 -78q9 -17 8 -31q0 -13 -7 -23q-20 -31 -53 -35q-5 -1 -10 -1q-29 0 -62 21q-27 16 -36 37t-9 62q0 53 -35.5 136t-46.5 130q-13 66 -41 76q-6 2 -15 2q-31 0 -91 -27q-82 -39 -120 -39t-116 -35q-68 -31 -91 -76.5t-27 -152.5q-4 -82 -15 -101.5t-49 -19.5 q-60 0 -68 39zM251 534q-2 -5 -2 -10q0 -9 5 -18q3 -3 13 -3q33 -1 143 29q144 38 163 58q5 5 5 14q0 11 -7 28q-12 32 -32.5 80t-26.5 79q-10 53 -51 166.5t-64 113.5q-18 0 -30.5 -37t-14.5 -90q0 -33 -36.5 -146.5t-36.5 -152.5q0 -31 -11.5 -65t-16.5 -46z" />
<glyph unicode="B" horiz-adv-x="796" d="M20 1090q2 74 9.5 97t27.5 27q6 1 12 1q27 0 56 -25q18 -16 31.5 -17.5t38 7t56.5 20.5t100.5 22.5t158.5 12.5q111 0 166 -23.5t88 -87.5q12 -21 12 -49q0 -47 -32 -113q-52 -106 -169 -229q-60 -65 -60 -96t67 -43q59 -8 110 -41t62 -66q6 -18 6 -42.5t-6 -57.5 q-12 -63 -110 -177q-100 -114 -210 -196q-92 -68 -135 -68q-9 0 -16 3q-25 10 -40.5 -14.5t-24.5 -88.5q-6 -35 -18 -50t-32 -19q-7 -1 -14 -1q-44 0 -58 47q-18 54 -18 232q0 229 -16.5 555t-28.5 342q-13 17 -13 122v16zM172 897q4 -100 15.5 -204.5t13.5 -106.5 q4 -4 12 -4q25 0 84 43q78 57 154 147q101 117 153 210q37 65 36 97q0 14 -7 23q-21 26 -93 26q-48 0 -120 -12q-178 -29 -232 -84q-17 -29 -17 -103q0 -15 1 -32zM209 356q-3 -11 -3 -38q0 -36 5 -101q6 -102 14 -126.5t31 -24.5q25 0 121 82q97 84 175 184q63 80 62 118 q0 10 -4 17q-10 14 -80 16h-21q-63 0 -140 -10q-55 -6 -113 -55q-41 -36 -47 -62z" />
<glyph unicode="C" horiz-adv-x="991" d="M20 283q0 84 29 236.5t51 195.5q29 55 29 76q0 14 26.5 42.5t37.5 69.5q20 76 116.5 202t159.5 159q50 27 79 27l1 -1q29 0 86 -28q53 -27 90 -74t70 -139q27 -70 27 -117q0 -68 -56 -88q-29 -10 -47.5 -6t-40.5 24q-25 20 -29 43q-2 9 -2 24q0 21 4 54q4 26 4 49 q-1 47 -17 81q-24 50 -73 50q-33 0 -115.5 -73.5t-82.5 -102.5q0 -23 -27 -45q-55 -45 -125 -243.5t-78 -331.5q-2 -30 -2 -56q-1 -90 21 -142q28 -67 108 -110q48 -25 70 -25t84 23q66 25 153.5 98.5t87.5 104.5q0 16 46.5 51t46.5 49.5t46 75t46 78.5q0 33 29.5 48.5 t60.5 -3.5q35 -17 37 -69v-7q0 -47 -29 -71q-29 -25 -43 -62q-16 -39 -102 -152.5t-103 -113.5q-16 0 -108 -70q-116 -88 -232 -88q-38 0 -74 9q-154 36 -225 202q-35 78 -35 146z" />
<glyph unicode="D" horiz-adv-x="1026" d="M25 1282q11 25 45 26h3q33 0 62 -20q31 -22 31 -51q0 -43 23 -43q14 0 38 16q35 23 196 26h37q133 0 199 -19q72 -20 164 -89t138 -135q35 -53 41 -86q3 -15 3 -43q0 -32 -4 -80q-4 -70 -13 -109.5t-19.5 -52t-23.5 -33t-19 -50.5q-14 -53 -148.5 -201t-296.5 -276 q-151 -120 -222 -120q-5 0 -9 1q-20 2 -31.5 -11.5t-14.5 -33t-13.5 -43t-28.5 -33.5q-12 -7 -23 -7q-35 0 -73 62q-41 66 -41 122q0 18 4 36t18 31q16 14 21.5 75.5t5.5 241.5q-2 217 -19.5 434t-28.5 327q-6 57 -6 92q0 32 5 46zM174 954q14 -84 43 -659q10 -195 27 -211 q4 -4 11 -4q5 0 11 2q78 12 273.5 197.5t271.5 316.5q37 66 47 105.5t10 125.5t-7 117t-38 64q-25 29 -75 58.5t-118 53.5q-66 23 -148 22h-7q-86 -1 -164 -36q-89 -40 -117 -70q-21 -24 -22 -60q0 -10 2 -22z" />
<glyph unicode="E" horiz-adv-x="921" d="M23 680q-2 176 -2 288t2 162q4 98 22 107q23 12 240 64.5t243 64.5q42 17 81 17q15 -1 29 -3q52 -8 75 -43t23 -57q0 -12 -6 -20q-18 -24 -95 -25q-70 0 -188.5 -35t-143.5 -37q-43 0 -96 -37l-53 -39v-243q0 -246 12 -254q3 -2 10 -2q30 0 134 26q130 32 169 54 q41 23 209 57q115 23 146.5 24t50.5 -18q17 -17 17 -26q0 -10 -25 -27q-35 -27 -109 -45q-133 -33 -304 -90.5t-255 -100.5q-31 -14 -39 -41q-6 -29 -6 -194q0 -213 22 -236q6 -6 17.5 -9t31 1t41 10.5t56.5 18.5t71.5 25.5t93 32t113.5 36.5q119 35 135 53q25 23 58 17 t55 -39q28 -39 28 -64q0 -13 -8 -22q-24 -25 -161 -58q-104 -25 -180 -53.5t-107 -41.5t-51 -13q-25 0 -122 -46t-114 -46q-25 0 -61 59q-30 48 -30 73q0 5 1 9q3 8 3 24q0 32 -11 99q-16 100 -22 643z" />
<glyph unicode="F" horiz-adv-x="974" d="M20 1190q0 16 27 47q14 16 16 35.5t-10 58.5q-13 43 -13 71q0 36 23 48q7 3 15 4q37 0 86 -78q20 -31 37.5 -44t35 -19t57.5 3t80 20.5t128 36t176 44.5l156 39l30 -41q33 -41 33 -61q1 -26 -31 -46q-23 -14 -46 -14q-10 0 -19 2q-11 2 -25 2q-21 0 -50 -5 q-48 -9 -124 -28.5t-125 -27.5q-68 -12 -156 -43t-112 -51q-15 -11 -15 -127q0 -26 1 -56q4 -169 24 -223q12 -33 25.5 -39t52.5 2q45 8 114.5 43t96.5 35q37 0 96 31q46 23 180 42q80 11 120 11q28 0 36 -5q14 -8 15 -22q-1 -7 -5 -17q-12 -26 -47 -44q-33 -16 -153.5 -50 t-200.5 -69l-182 -82q-98 -43 -117 -58t-17 -48q12 -248 22.5 -326t37.5 -129q35 -68 35 -99q0 -33 -45 -52q-24 -11 -43 -11q-60 0 -76 107q-37 254 -56.5 468t-22.5 329.5t-4 201.5t-7 125t-25 60q-29 33 -29 49z" />
<glyph unicode="G" horiz-adv-x="1058" d="M22 362q-4 38 -4 77q0 122 32 257q42 178 136 330q53 84 148.5 178t161.5 129q99 49 157 49h9q59 -4 126 -71q47 -47 58 -73q9 -19 9 -52q0 -12 -1 -25q-4 -68 -29.5 -94.5t-53.5 -1.5t-38 92q-8 47 -20.5 59.5t-53.5 16.5q-8 1 -16 1q-34 0 -63 -14q-37 -18 -62.5 -37.5 t-38.5 -19.5q-16 0 -102 -98t-86 -115q0 -12 -43 -69q-70 -92 -92 -343q-6 -77 -6 -146q0 -159 34 -281q18 -72 67.5 -122t98.5 -50q45 0 146.5 70.5t136.5 125.5q33 49 98 131q106 133 154 293q12 45 12 72q0 35 -23 35h-4q-4 0 -6 -2q-45 -12 -116.5 -39t-120.5 -44.5 t-103 -30.5q-38 -9 -66 -9q-13 0 -24 2q-35 6 -51 35q-18 35 -18 45q0 14 81.5 49t114.5 35q41 0 158 54t147 89q33 37 75 37t73 -35q18 -20 22 -45q1 -8 1 -20q0 -23 -5 -58q-68 -473 -389 -774q-115 -106 -165 -135t-124 -29q-84 0 -158.5 77t-117.5 208t-56 286z" />
<glyph unicode="H" horiz-adv-x="802" d="M21 286q-2 79 -2 156q0 252 18 484q23 334 49 374q12 23 43 15q29 -8 40 -22.5t10 -53.5t-8 -84t-18.5 -146.5t-15.5 -207.5l-12 -207l72 12q53 8 155.5 54.5t139.5 46.5q49 0 94 22q31 16 39 43q10 37 18 285q8 303 33 334q24 28 47 27.5t45 -27.5q14 -14 14 -57.5 t-12 -147.5q-12 -101 -12 -460v-108q2 -454 16 -671v-22q0 -35 -5 -43q-7 -10 -54 -9h-64l-6 348q-4 348 -12 369q-3 10 -23 10q-26 0 -82 -18q-96 -31 -196.5 -72t-104.5 -41q-18 0 -69 -55l-52 -54l21 -176q10 -88 22.5 -145t19.5 -74.5t10 -35t1 -42.5q-4 -37 -28 -49 q-10 -5 -21 -5q-13 1 -29 9q-28 16 -47 49q-27 59 -34 395z" />
<glyph unicode="I" horiz-adv-x="913" d="M33 39q-12 27 -12 47q1 22 15 36q28 26 120 32h16q98 6 123 28q31 31 37 187q2 31 4 106q8 279 24 504l13 172l-72 -14q-70 -14 -106 -39q-36 -26 -71 -26q-7 0 -13 1q-41 6 -58 43q-10 21 -10 40q-1 21 11 41q22 38 71 48q25 4 126 29t171 35q47 6 89 21.5t62.5 27.5 t38.5 16q5 1 10 1q12 0 22 -8q13 -11 32 -46q14 -33 14 -47t-18 -33q-29 -29 -99 -39q-45 -8 -58 -19.5t-15 -47.5q-6 -53 -35 -316q-22 -187 -22 -365v-15q1 -185 26 -210q27 -8 51 -3q26 6 102 14q62 7 120 6h28q80 -4 99.5 -11t23.5 -36q1 -5 1 -9q0 -22 -18 -36 q-20 -16 -70 -24.5t-110.5 -14.5t-155 -23.5t-184.5 -44.5q-109 -35 -204 -47q-39 -5 -61 -5q-17 0 -25 3q-18 6 -33 41z" />
<glyph unicode="J" horiz-adv-x="1210" d="M20 342q0 105 48 158q35 40 53 40q14 0 18 -26q1 -7 1 -16q0 -26 -9 -66q-11 -45 -11 -89q0 -49 14 -97q26 -90 97 -160q55 -53 97 -68q32 -11 94 -11q18 0 37 1q35 2 56.5 18.5t55.5 69.5q55 86 55.5 133t28 137.5t29.5 438.5l4 348l-72 6q-10 1 -24 1q-63 0 -204 -22 q-173 -26 -251 -51q-27 -8 -48 -8q-24 0 -40 11q-23 18 -23 58q0 10 1 21q2 23 5 34t14 18.5t24.5 8.5t44 4t65.5 5t97.5 11.5t130.5 21.5q100 19 305 39q94 8 174 21.5t118.5 22.5t69.5 17q25 6 38 6h7q13 -2 23 -10t24 -31q23 -35 23 -57q0 -11 -6 -20q-19 -23 -94 -23 q-59 0 -94 -2t-70 -11.5t-53.5 -20.5t-36 -40.5t-24.5 -59.5t-12 -89.5t-6 -117.5t-1 -155q-2 -197 -9.5 -288t-29.5 -177q-55 -221 -129 -316t-185 -95q-92 0 -202.5 83t-171.5 199q-46 87 -46 195z" />
<glyph unicode="K" horiz-adv-x="931" d="M20 971q4 246 10.5 315.5t24 69.5t23.5 -48t8 -208q4 -256 14 -283q6 -16 30 2.5t85 77.5t119 104q94 74 196.5 172.5t151.5 161.5q37 47 49 53q2 1 6 1q12 0 33 -17q30 -29 30 -60q0 -15 -6 -29q-22 -46 -141 -155q-174 -160 -294.5 -282.5t-120.5 -136.5 q0 -18 149 -148l481 -411q33 -30 40 -44q3 -5 3 -11q0 -10 -8 -23q-21 -35 -52 -35q-14 -1 -30 7q-51 24 -190 155q-385 356 -480 356q-8 0 -14 -2q-13 -4 -13 -56q0 -21 2 -47q7 -96 38 -237q32 -159 32 -194q0 -36 -24 -64q-33 -35 -47 -35q-12 0 -21.5 12.5t-16.5 38 t-12 55t-10.5 75.5t-9.5 85t-9 98.5t-9 100.5q-17 177 -17 489v97z" />
<glyph unicode="L" horiz-adv-x="1085" d="M20 -9q0 46 6.5 128t16.5 184.5t29 255.5q27 248 27 460t14 224q10 10 20 10q5 0 9 -2q14 -6 46 -41q20 -20 25.5 -31.5t7.5 -26.5t-4 -53t-12 -89.5t-16.5 -158t-18.5 -237.5q-8 -162 -23 -360q-7 -96 -7 -142q0 -38 5 -42q4 -2 11 0q12 4 124.5 40.5t184.5 65.5 q137 51 412 129q63 18 106 18q52 0 74 -26q11 -12 11 -25q0 -34 -67 -79q-70 -49 -161 -60q-82 -8 -253 -53t-227 -74q-272 -141 -297 -141q-14 0 -23 10t-14.5 40t-5.5 76z" />
<glyph unicode="M" horiz-adv-x="1081" d="M39 125q12 20 20.5 140t16.5 280t18 233q8 68 22.5 216.5t25 259t16.5 122.5q7 24 29 24q3 0 7 -1q28 -4 54 -35q20 -23 30 -74t23.5 -144t40.5 -181q43 -137 43 -166q0 -25 58.5 -141.5t70.5 -116.5t51 85t39 113q0 16 36 125t46 199q14 109 31 131q19 24 50 24 q7 0 15 -2q42 -6 64 -40q29 -41 49 -214.5t33.5 -344.5t23.5 -197q10 -23 35 -185.5t47 -207.5q27 -47 27 -100q0 -13 -2 -25q-8 -66 -47 -70q-5 -1 -9 -1q-33 0 -59 39q-29 44 -29 114q0 49 -30.5 215t-42.5 278q-10 109 -23.5 190t-28 124t-26.5 38q-16 -6 -51 -138 t-79 -264t-83 -138q-8 -1 -16 -1q-25 0 -47 16q-28 20 -29 50q0 18 -36 99.5t-85 191t-70 174.5q-35 106 -49 107q-17 0 -43 -398q-19 -289 -19 -393q0 -40 3 -53q2 -10 2 -19q0 -35 -29 -71q-27 -33 -37 -34t-39 24q-37 34 -37 77q0 31 19 66z" />
<glyph unicode="N" horiz-adv-x="1099" d="M21 1062q0 47 40 64q29 12 55.5 30t35 21t21.5 -3.5t40 -30.5q31 -27 37 -49q3 -11 3 -27.5t-3 -38.5q-8 -23 -4 -61.5t19.5 -88t66.5 -139.5t135 -215q23 -33 49.5 -74.5t38.5 -58t44 -51.5t87 -90q103 -103 130 -103q4 0 7 3q25 23 45.5 273.5t46 521t58.5 331.5 q13 29 25 31h3q12 0 43 -17q35 -18 35 -73.5t-35 -112.5q-37 -59 -38 -189q0 -92 -25 -418.5t-41 -449.5q-8 -63 -33.5 -104t-56.5 -41q-16 0 -92 92t-92 98t-40 40t-65 90.5t-82 99.5q-61 63 -73 92q-16 41 -88 148.5t-82 107.5q-14 0 -18 -136q-1 -42 -1 -88 q0 -104 6 -228q8 -179 25 -292q5 -44 5 -67q0 -11 -1 -17q-4 -18 -33 -32q-25 -14 -37 -14h-4q-12 2 -37 34q-6 8 -10 14t-9 16.5t-6 20.5t-3 28.5t-1 41t0 58.5v38v42q1 44 1 105.5t1 135.5v51q0 54 -1 117q-2 360 -15 407q-8 23 -32 53q-45 53 -45 104z" />
<glyph unicode="O" horiz-adv-x="1116" d="M33 346l37 131q10 39 90 207t119 234q45 76 133 176t125 116q42 18 73 18h2q32 0 119 -24q63 -18 153.5 -85.5t112.5 -117.5q14 -25 27.5 -51t20 -38.5t13.5 -37t17 -63.5q20 -87 20 -171q0 -317 -284 -601q-113 -115 -207 -157q-76 -34 -166 -34q-21 0 -43 2 q-199 18 -299 166q-77 113 -77 230q0 50 14 100zM143 209q0 -70 9.5 -94.5t46.5 -55.5q93 -80 208 -80q3 1 7 1q118 2 225 88q63 49 167.5 166.5t104.5 138.5q0 20 39 86q23 39 31 83t8 136v40q0 74 -6 104q-8 38 -45 98q-35 53 -85 93q-49 41 -101 59q-45 16 -89 16h-11 q-48 -2 -81 -25q-53 -37 -166.5 -183.5t-113.5 -179.5q0 -43 -27 -77q-37 -55 -79 -196.5t-42 -217.5z" />
<glyph unicode="P" horiz-adv-x="849" d="M29 674q7 19 7 93q0 72 -6 196q-5 93 -5 154q0 104 14 114q10 12 20 12q5 0 9 -2q14 -8 51 -53q35 -39 52 -50.5t30 1.5q29 20 155.5 40.5t237.5 20.5q90 0 117.5 -8t64.5 -47q53 -62 54 -128q0 -16 -4 -32q-16 -84 -93.5 -167t-175.5 -148.5t-196.5 -106.5t-157.5 -41 q-41 0 -51 -24q-3 -8 -2 -31q0 -50 14 -174q31 -287 31 -370q0 -21 -2 -29q-4 -14 -19 -27q-18 -17 -30 -17q-10 0 -32 20t-31 82t-18 269q-11 319 -31 365q-10 25 -11 49q0 20 8 39zM150 776q2 -92 9 -113.5t34 -25.5h6q31 0 95 33q70 37 89 37q18 0 77.5 43t121.5 100 q63 56 100 120q21 36 21 62q0 20 -13 35q-18 20 -125.5 20t-214.5 -22q-57 -12 -88 -30.5t-63 -57.5q-39 -49 -47 -78q-4 -17 -4 -58q0 -27 2 -65z" />
<glyph unicode="Q" horiz-adv-x="1370" d="M28 464q17 124 92 275.5t206 307.5q49 57 104 135q33 49 93.5 98t103.5 74.5t51 27.5q6 0 26.5 -21.5t56.5 -48t79 -32.5q43 -8 82 -28.5t60.5 -36t29.5 -15.5q12 0 102 -86q88 -82 112 -170q13 -44 13 -103q0 -57 -12 -128q-14 -78 -28.5 -114t-33 -59.5t-30.5 -52.5 q-8 -23 -23.5 -46t-18.5 -33.5t-3 -25.5t20 -35.5t52 -50.5t93 -81q82 -66 93 -97q1 -6 1 -11q0 -25 -44 -46q-31 -14 -56.5 0.5t-113.5 102.5l-123 125l-189 -152q-121 -96 -176 -129t-137 -53q-90 -25 -121 -25t-90 23q-98 35 -164.5 106.5t-94.5 176.5q-18 65 -18 139 q0 43 6 89zM131 375q-1 -31 -1 -55q0 -41 4 -58q7 -26 48 -76q104 -118 222 -118q20 0 40 4q140 22 344 213l115 106l-59 60q-139 139 -139 202q0 7 2 13q9 36 33 36q20 0 51 -24q33 -27 83 -84l105 -111l164 193v307l-74 66q-59 51 -123.5 85.5t-116 48t-96.5 16.5 q-17 1 -31 1q-24 0 -40 -3q-25 -5 -31 -15q-12 -20 -56 -37q-55 -20 -166.5 -164.5t-170.5 -273.5l-62 -129q-37 -82 -45 -203z" />
<glyph unicode="R" horiz-adv-x="1116" d="M21 1198q2 39 26 49q7 3 15 3q23 0 49 -23q23 -20 29.5 -52t6.5 -118q0 -102 19.5 -235.5t34.5 -133.5q12 0 37.5 60.5t48.5 148.5q25 94 123 234.5t139 140.5h2q32 0 82 28q31 15 68 16q43 0 96 -21q98 -38 141 -113q27 -48 27 -97q1 -17 -3 -35q-14 -66 -85 -176 q-51 -82 -188.5 -206.5t-196.5 -149.5q-33 -12 -28 -35.5t46 -44.5q27 -12 69 -44t66 -42q33 -10 33 -27.5t168 -127.5q217 -141 237 -168q12 -13 12 -40q0 -6 -1 -12q-4 -48 -38 -48q-14 0 -32 8q-45 18 -139 88q-29 23 -55.5 41t-45 30.5t-34 22.5t-25.5 16t-19.5 11.5 t-13.5 7.5l-8 4t-5 4t-1 4v6q0 12 -84 70.5t-182 102.5q-60 27 -93 27q-20 0 -30 -10q-15 -16 -17 -176v-50q0 -127 11 -218q4 -32 4 -56q-1 -42 -13 -62q-14 -22 -41 -22q-14 0 -30 5q-33 10 -41 47q-12 49 -23 317q-8 193 -31.5 417t-43 350t-25.5 157q-18 80 -18 120v7z M305 628q2 -20 19 -26q7 -3 17 -3q50 0 157 82q127 97 235.5 227.5t108.5 193.5q0 41 -32 62.5t-101 29.5q-17 2 -31 2q-34 0 -53 -10q-27 -14 -107 -94q-70 -68 -97.5 -108t-39.5 -82t-25 -68q-25 -45 -41 -134q-10 -45 -10 -66v-6z" />
<glyph unicode="S" horiz-adv-x="1038" d="M20 831q0 63 7.5 95t29.5 57q25 27 38.5 51.5t23.5 36.5t65 47.5t174 98.5q90 49 182 54q12 1 23 1q79 0 141 -31q72 -35 121 -106.5t58 -167.5q4 -37 4 -61q0 -16 -2 -28q-4 -28 -21 -42q-16 -14 -27.5 -10.5t-29.5 28.5q-29 41 -29 107.5t-55 117.5q-67 66 -170 66 q-38 1 -82 -9q-160 -34 -276 -167q-67 -77 -79 -129q-3 -12 -3 -23q0 -39 30 -72q72 -76 280 -149.5t269 -73.5q39 0 134.5 -56t138.5 -104q55 -63 55 -136q0 -32 -11 -66q-36 -110 -163 -154q-121 -41 -179.5 -55t-146.5 -23q-29 -3 -59 -3q-69 1 -137 17q-98 24 -160 70.5 t-62 100.5q0 29 -11 45t-16 18t1 21q4 4 15 -2.5t27.5 -20.5t33.5 -35l63 -73h209q131 0 188.5 7t116.5 31q82 35 130 74t48 70q0 53 -108.5 108.5t-302.5 102.5q-129 31 -241 85t-169 113q-45 45 -55.5 73t-10.5 101z" />
<glyph unicode="T" horiz-adv-x="1329" d="M22 1052q-2 15 -1 26q0 27 10 40q13 14 41 16q10 1 22 1q21 0 47 -2q20 -2 54 -3q35 0 81 3q94 4 203 20l393 57q191 27 246 43q56 17 97 17q29 0 51 -8q43 -17 43 -65q0 -9 -2 -19q-4 -29 -30 -37t-140 -19q-164 -12 -219 -28l-56 -15l-4 -237q-2 -60 -2 -107 q0 -71 4 -111q6 -68 21.5 -159.5t25.5 -243.5q16 -238 29 -289q5 -16 5 -31q-1 -25 -13 -43q-20 -30 -56 -30q-41 0 -58 30q-16 29 -22 103q-5 63 -5 135v26v23q0 83 -6 217q-7 152 -25 302q-31 233 -35 307q-4 53 -14.5 64.5t-63.5 13.5q-9 1 -21 1q-52 0 -172 -14 q-146 -18 -271 -34q-99 -12 -124 -12q-7 0 -8 1q-19 13 -25 61z" />
<glyph unicode="U" horiz-adv-x="1009" d="M20 315q0 56 21 217l57 447q29 209 35 217t45 -14q35 -18 37 -112v-20q1 -86 -15 -188q-18 -114 -37.5 -269t-19.5 -255q0 -92 7.5 -123t39.5 -59q35 -31 48.5 -32t56.5 23q45 27 85 65t56.5 58.5t56 81t48.5 70.5q59 84 59 95t31 44q41 45 135 236q27 53 35 107t10 190 q4 213 16 233q11 19 32 19q5 0 11 -2q29 -6 62 -37q25 -25 30 -60q2 -16 2 -49q0 -40 -3 -106q-10 -176 -29 -277q-15 -69 -15 -201q0 -72 4 -163q12 -258 46 -385q21 -83 21 -125q0 -11 -1 -19q-8 -38 -56 -38.5t-71.5 54t-38.5 199.5q-20 188 -20 295q0 121 -26 121h-3 q-12 -4 -27 -33q-10 -29 -33.5 -68.5t-55 -92t-48.5 -83.5q-33 -57 -103.5 -145t-109.5 -119q-59 -47 -124 -47q-57 0 -119 37q-82 49 -82 54t-29 122q-21 82 -21 137z" />
<glyph unicode="V" horiz-adv-x="1093" d="M21 1040q-1 8 -1 15q0 23 11 45q17 39 33 41h1q17 0 58 -33q33 -25 43 -68t36.5 -152.5t88.5 -246.5q41 -92 71.5 -184t49 -141.5t45.5 -84.5q33 -43 32 -77q0 -47 27 -23q25 23 49 92q90 262 189.5 497.5t146.5 341t47 132.5q0 56 32 56q20 0 54 -23q35 -27 38 -53v-7 q0 -27 -21 -82l-103 -241q-29 -66 -56.5 -131.5t-41.5 -97t-26.5 -61.5t-17.5 -45t-5 -28q0 -20 -37 -93t-47 -130q-8 -51 -43 -126t-45 -146q-18 -152 -82 -174q-8 -2 -15 -2q-42 0 -79 77q-35 78 -35 105q0 20 -26.5 79.5t-71 157t-74.5 174.5l-74 203q-37 96 -58.5 162 t-58.5 162q-29 78 -34 110z" />
<glyph unicode="W" horiz-adv-x="1406" d="M20 1032q4 31 15.5 40t44.5 9q53 0 65 -28q12 -20 42 -188.5t49 -313.5q18 -139 47.5 -257t46.5 -118q8 0 28.5 58.5t53 165t55.5 169.5q43 115 68.5 224.5t32.5 171t16.5 110.5t28 68.5t55.5 19.5t67.5 -48t30.5 -103q0 -31 37 -152t37 -158t26.5 -69.5t42.5 -85.5 l49 -164q29 -96 29 -125q0 -27 18.5 -29t24.5 23q41 139 70.5 254t40 162t19.5 78.5t20 50.5q18 39 34.5 154.5t28.5 129.5q6 8 33 105q23 84 53 86q16 0 37 -21q12 -11 18 -25q4 -11 4 -29v-11q-2 -26 -6 -51t-16 -76t-24.5 -97.5t-34 -130t-39.5 -161.5 q-25 -102 -50.5 -203.5t-38 -147t-20.5 -84t-8 -63.5q0 -35 -14.5 -81t-25.5 -77.5t-3 -42.5q10 -18 -23.5 -53t-62.5 -35q-33 0 -61.5 41t-28.5 86q0 31 -13.5 62.5t-45 111.5t-62.5 191q-18 72 -53 188.5t-49.5 173t-14.5 76.5q0 37 -14 37q-20 -2 -37 -57 q-49 -170 -123 -459q-98 -381 -143 -461q-31 -54 -64 -54q-20 0 -41 19q-35 33 -35 70q0 41 -36 168q-31 119 -71 351t-40 300q0 53 -37 161q-33 98 -33 136v8z" />
<glyph unicode="X" horiz-adv-x="1105" d="M20 1139q6 78 45 78q1 -1 3 -1q42 -2 108 -83q45 -55 170 -188.5t162 -188.5q18 -29 35.5 -46.5t23.5 -13.5q10 8 137.5 262.5t143.5 301.5q10 32 39 32q28 0 74 -30q43 -28 43 -56q0 -21 -25 -43q-27 -20 -61 -88q-223 -432 -238 -479q-10 -31 10 -59q2 -4 4 -9 q23 -35 76 -90t100 -121q29 -37 57.5 -62.5t47.5 -27.5q45 -7 84 -83q26 -51 26 -88q0 -18 -6 -33q-18 -49 -51 -49q-21 0 -49 20q-47 33 -127 129q-129 150 -150 184q-27 43 -66.5 82t-49.5 33t-73.5 -128t-76.5 -130q-10 -4 -30.5 -36t-65.5 -90t-98 -118q-59 -66 -81 -78 q-10 -6 -19 -6q-11 0 -21 8q-26 22 -26 53q1 13 5 28q16 50 93 151q76 98 107.5 148t47.5 71q39 43 83 133t44 127q0 31 -103.5 155t-209 234.5t-119.5 116.5q-24 9 -24 61q0 8 1 17z" />
<glyph unicode="Y" horiz-adv-x="874" d="M23 649q12 168 37.5 280.5t45 164t19.5 84.5q2 51 38 127.5t60 76.5q39 0 63 -49q14 -31 14 -60q0 -17 -5 -34q-55 -154 -93 -313.5t-44 -266.5q-2 -24 -2 -40q0 -26 4 -35q6 -17 28 -21h6q56 0 167 128q118 136 200 304q20 43 40 76t38 74q12 27 28.5 59.5t23.5 49 t13.5 37t6.5 40.5q0 44 20 64q11 11 30 11q12 0 26 -4q38 -11 59 -42q8 -19 8 -36q0 -5 -1 -10q-3 -20 -14.5 -71t-23.5 -103.5t-21.5 -142.5t-9.5 -186q0 -170 -31.5 -423t-62.5 -322q-45 -102 -71.5 -141.5t-73.5 -63.5q-55 -30 -115 -30q-56 0 -117 26q-76 31 -167 113.5 t-99 125.5q-4 21 -4 36q0 35 21 35q3 0 6 -1q25 -6 71 -53q92 -88 199 -138q19 -9 39 -9q64 0 141 83q18 20 29.5 37.5t18.5 33t15.5 51.5t13.5 63.5t17.5 100.5t22.5 134q12 63 16 151q2 36 2 67q0 47 -4 85q-6 62 -18 57q-20 -6 -37 -36q-72 -152 -174.5 -261.5 t-194.5 -136.5q-36 -10 -66 -10q-62 0 -98 44q-43 52 -43 162q0 27 3 58z" />
<glyph unicode="Z" horiz-adv-x="1501" d="M20 512q0 35 6.5 54.5t24 28.5t40 9t63.5 -1t86 -3q18 -1 40 -1q32 0 76 2q72 3 148 13l174 25l76 147q76 147 92 170q63 76 74 154q4 31 -11 29q-6 0 -16 -11q-14 -10 -53 -18t-108.5 -21.5t-125.5 -27.5q-100 -29 -240 -42q-67 -6 -108 -6q-44 0 -59 7q-29 14 -33 64 q-1 7 -1 13q0 39 21 60q16 16 71 16q26 0 62 -4q16 -1 34 -1q84 0 205 23q147 28 231 53.5t100 31.5q41 16 72.5 28.5t53 20.5t39.5 10q20 2 28 5q3 1 6 1q6 0 13 -3q11 -5 12 -6t11.5 -11t12.5 -12q34 -34 34 -60q1 -29 -39 -79q-38 -48 -91.5 -145t-92.5 -173t-51 -84 q-16 -8 -16 -45q0 -29 22 -31h3q40 0 257 41q193 37 238 40h10q38 0 55 -21q15 -18 15 -36q1 -14 -9 -27q-22 -30 -81 -42q-223 -41 -529 -108q-59 -12 -103 -40t-44 -53q0 -14 -68 -118q-106 -164 -100 -187q0 -8 14 -14q10 -3 44 -3q68 0 235 13q223 19 314 19q40 0 54 -4 q29 -8 49 -41q22 -33 22 -56q0 -33 -46 -45q-23 -6 -203 -14q-100 -6 -172 -21q-90 -18 -299 -18h-209l-20 49q-10 26 -10 57q0 19 4 39q10 54 36 70q20 10 78 97t58 106q0 14 36 47q27 25 27 39q0 13 -24 16q-7 1 -15 1q-25 0 -63 -9q-80 -18 -184.5 -18t-149.5 -23 q-22 -9 -40 -9q-20 -1 -35 11q-28 22 -28 82z" />
<glyph unicode="[" horiz-adv-x="890" d="M20 893q4 27 19.5 34t71.5 9q90 2 214.5 16.5t157.5 28.5q45 18 92.5 15t65.5 -25q29 -35 6 -56q-35 -29 -366 -127q-12 -4 -20.5 -75.5t-19 -206.5t-20.5 -211q-16 -147 -28 -315l-13 -170l51 -21q35 -12 138.5 -8t205 15t192.5 13.5t99 -16.5q6 -10 1 -19.5 t-26.5 -20.5t-59.5 -24.5t-95 -29.5q-135 -37 -357.5 -44t-260.5 23q-29 25 -30 127.5t28 370.5q43 422 38 475q-4 37 -41 105q-49 94 -43 137z" />
<glyph unicode="\" horiz-adv-x="1220" d="M31 1135q29 27 72.5 5t93.5 -85q55 -70 198.5 -242t214.5 -254l146 -174q80 -98 205.5 -220t187 -188.5t47.5 -89.5q-33 -51 -80 -30.5t-153 131.5q-135 141 -207 227l-594 694q-100 113 -125.5 158t-5.5 68z" />
<glyph unicode="]" horiz-adv-x="661" d="M20.5 800.5q2.5 30.5 30.5 55.5q33 27 154.5 27t191.5 39q72 39 120 37.5t87 -41.5q31 -33 35 -66t-4 -172q-14 -219 -26.5 -533.5t-10.5 -425.5l2 -131l-534 7l155 16q156 18 176 25q4 0 8.5 6t7.5 17t6 23.5t6 34t5 42t6 51t6 58.5t7.5 67.5t9.5 74.5q14 139 17 442.5 t-12 312.5t-116 -17q-92 -25 -188.5 -26t-118.5 21q-23 25 -20.5 55.5z" />
<glyph unicode="a" horiz-adv-x="952" d="M20 88q2 154 195 498q37 66 166 173t188 109q29 0 76 -44t76 -99q26 -49 26 -73t-20 -91q-28 -95 -28 -180q0 -205 163 -354q62 -57 68 -95q0 -3 1 -6q0 -32 -52 -39h-5q-36 1 -96 49q-64 52 -98.5 93t-42.5 55l-33 45l-31 -43q-76 -102 -182 -180t-168 -78 q-80 0 -141.5 80t-61.5 180zM148 105q0 -71 34 -103q24 -23 40 -23v1q16 0 61 22q61 29 152 133.5t112 167.5q14 49 31.5 191.5t19.5 160.5q5 30 5 45q0 8 -1 12q-4 12 -27 11q-84 -2 -165 -96q-49 -55 -119 -158.5t-72 -120.5q0 -16 -35 -90q-36 -77 -36 -153z" />
<glyph unicode="b" horiz-adv-x="800" d="M22 -56q10 40 46 44q25 4 34 22.5t17 69.5q8 76 26.5 457.5t18.5 539.5q2 92 7 117t28 25q35 0 67 -39q26 -26 26 -55t-13 -115q-18 -102 -23 -312q-2 -59 -2 -104q0 -111 10 -121t53 27q55 50 101 64q25 7 63 8q31 0 70 -5q74 -8 101.5 -21.5t62.5 -58.5q55 -65 63 -107 q2 -9 1 -20q0 -35 -21 -77q-27 -53 -163 -189.5t-163 -136.5q-23 0 -67 -33q-69 -50 -183 -68q-38 -6 -67 -6q-57 0 -76 23q-19 22 -19 49q-1 11 2 22zM260 59q8 -24 27 -24.5t49 24.5q41 35 121 91q104 70 146 160q17 37 17 64q0 39 -34 58q-33 17 -65 17h-3 q-39 0 -106.5 -39t-75.5 -66q-10 -31 -43 -106q-38 -82 -38 -139q0 -22 5 -40z" />
<glyph unicode="c" horiz-adv-x="909" d="M28 422q18 115 68 186q35 51 109 120t94 69q8 0 22.5 13t48 33.5t76.5 37.5q68 24 127 24t109 -24q31 -14 50.5 -43t39.5 -86q21 -62 21 -99q0 -15 -4 -26q-12 -39 -62 -39q-35 0 -52.5 21.5t-21.5 50t-19.5 60.5t-43.5 44q-29 12 -55.5 7t-90.5 -38q-204 -101 -274 -279 q-28 -72 -29 -140q0 -101 62 -193q20 -31 46.5 -57.5t43.5 -32.5q22 -8 52 -8t69 8q78 16 123 51q295 232 332 232q2 0 3 -1q16 -11 16 -28q0 -5 -2 -9q-6 -24 -46 -79q-70 -92 -104 -125t-136 -103q-90 -61 -130 -76.5t-108 -17.5q-66 0 -96 9.5t-76 43.5q-67 54 -67 71 q0 9 -15.5 31.5t-38 71t-36.5 111.5q-13 52 -13 111q0 47 8 98z" />
<glyph unicode="d" horiz-adv-x="1077" d="M23 40q-2 13 -2 38q0 35 4 92q10 141 58 229t193 236q88 90 138.5 128t97.5 52q43 12 65 12q7 0 11 -1q18 -5 65 -50q61 -59 62 -90q0 -37 24 -45q12 -4 21 8q6 8 29.5 203t46.5 225q26 39 26 105q0 70 29 96q11 10 26 11q24 0 56 -27q32 -30 32 -70t-38 -172 q-25 -90 -32 -174t-9 -299v-334l73 -74q58 -60 58 -91q0 -30 -51 -60q-17 -10 -41 -10q-17 0 -38 5q-50 13 -59 42q-8 25 -30.5 73.5t-36 96t-13.5 106.5q0 94 -14 94q-20 0 -39.5 -26.5t-19.5 -53.5q0 -35 -104.5 -170t-178.5 -196q-113 -92 -203 -92q-95 0 -166 102 q-35 49 -40 81zM143 68q18 -29 88 -35q10 -1 20 -1q34 0 57 11q30 14 93 70q70 63 120 126.5t118 178.5q33 57 33 74q0 19 -23 65l-43 92q-14 31 -35.5 31t-76.5 -29q-49 -27 -142.5 -113.5t-93.5 -105.5q0 -14 -41 -65t-67 -159q-15 -62 -16 -98q0 -28 9 -42z" />
<glyph unicode="e" horiz-adv-x="925" d="M25 428q23 94 71 94q27 0 27 62q0 59 35 150t81.5 160t77.5 69q14 0 26.5 12t35 27.5t59.5 19.5q24 3 46 3q150 0 188 -138q10 -40 10 -77q0 -32 -8 -62q-16 -66 -49 -120.5t-71 -94t-64.5 -61t-28.5 -21.5q-8 0 -50 -31t-92 -41q-41 -10 -49 -21.5t-6 -54.5 q4 -63 62 -115q2 -2 10 -9t11 -11t14.5 -10t20.5 -8.5t24.5 -5.5t32 -1t40 7.5t49 15.5t58 25.5t69.5 37.5q152 87 211 87q27 0 35 -19q4 -10 4 -21q0 -40 -50 -86q-64 -60 -228 -147q-77 -43 -149 -52q-25 -3 -47 -3q-43 0 -75 11q-50 17 -87.5 45t-54.5 54.5t-17 40.5 q0 23 -29 55.5t-37 73.5q-8 35 -29.5 56.5t-41.5 27.5t-32 24q-7 11 -7 27q0 11 4 25zM250 551q0 -27 45 -29h7q42 0 81 23q31 18 79 69.5t85 108.5q13 20 23 50q9 27 9 55v6q-1 30 -24 51.5t-68 21.5q-72 0 -154.5 -126t-82.5 -230z" />
<glyph unicode="f" horiz-adv-x="1038" d="M21 469q0 15 13 27q15 14 31.5 21t43 13.5t51 11.5t57.5 14t57 19q37 14 44.5 37t7.5 129q0 184 71.5 348t186.5 242q72 48 143 48q19 0 39 -4q90 -17 188 -120q47 -49 56 -73q7 -18 7 -58q0 -16 -1 -37q-4 -68 -11.5 -83t-39.5 -15q-29 0 -41.5 14.5t-22.5 61.5 q-20 86 -52 122t-95 44q-13 2 -26 2q-51 0 -90 -27q-48 -32 -93 -121q-51 -96 -85 -261q-19 -92 -19 -138q0 -36 12 -43q5 -4 15 -4q21 0 64 20q55 26 149 26h20q108 -3 112 -34v-3q0 -24 -59 -54q-64 -31 -170 -57q-33 -8 -48.5 -12.5t-36 -15.5t-27.5 -16.5t-15 -24.5 t-9.5 -32.5t-1.5 -48.5t2.5 -62.5t6.5 -84.5q9 -113 9 -198q0 -197 -50 -243q-25 -25 -35 -25v0q-10 1 -31 21q-29 31 -29 92q3 177 3 296q0 239 -11 249q-3 3 -11 3q-26 0 -99 -34q-79 -37 -115 -37h-7q-34 5 -52 56q-6 41 -6 49z" />
<glyph unicode="g" horiz-adv-x="749" d="M31 76q1 1 3 1q18 0 86 -67q75 -73 75 -94q0 -10 65 -41q42 -21 62 -21h4q20 3 82 40q96 55 133 149t37 281q0 195 -11 204q-4 4 -36.5 -27.5t-91 -82.5t-109.5 -76q-61 -31 -81 -33t-52 17q-47 29 -91 98q-34 58 -34 119q0 60 32 145q23 57 122.5 175t125.5 118 q22 0 90 45q65 44 107 44q8 0 16 -2q45 -11 107 -101l57 -82l-8 -361q-8 -340 -44 -486.5t-138 -248.5q-61 -61 -123 -75q-18 -3 -37 -3q-47 0 -100 23q-59 27 -130 102.5t-108 149.5q-21 42 -21 66q0 17 11 24zM223 623q-28 -57 -28 -93q0 -51 57 -59h5q27 0 55 17 q30 20 91 79q103 103 103 121q0 10 38 70q32 50 32 84q0 6 -1 12q-4 25 -17 35t-44 14h-7q-29 0 -55 -15q-30 -16 -85 -69q-88 -82 -144 -196z" />
<glyph unicode="h" horiz-adv-x="692" d="M21 1221.5q0 83.5 14 97.5q16 19 40 19q10 0 21 -3q51 -16 66 -49q20 -47 20 -334v-6q0 -332 6.5 -332t77.5 74q49 47 76 59.5t82 12.5t78.5 -11.5t62.5 -56.5q59 -72 83 -172t24 -287v-36q0 -133 -13 -183q-16 -57 -57 -57q-25 0 -38 9t-22.5 47t-12.5 96.5t-5 173.5 q-4 190 -11 239t-34 76q-31 31 -66 31q-12 0 -24 -4q-29 -6 -52.5 -38t-62.5 -116q-49 -100 -58 -149.5t-11 -198.5q0 -135 -7.5 -176t-29.5 -58q-31 -24 -62 -24q-2 1 -4 1q-32 2 -49 30q-9 18 -9 135v25q1 140 4 352v69q0 190 -13 436q-14 225 -14 308.5z" />
<glyph unicode="i" horiz-adv-x="274" d="M20 1188q1 62 13 74q13 13 34 13q25 0 60 -18q58 -30 58 -73q0 -9 -3 -19q-8 -25 -35 -47q-23 -23 -38 -24.5t-43 12.5q-27 12 -36.5 29.5t-9.5 52.5zM83 402q-1 111 -1 195q0 236 10 263q17 43 44 43t65 -41q29 -32 32 -54q0 -3 1 -8q0 -26 -15 -93q-13 -71 -13 -197 q0 -49 2 -106q7 -205 34 -310q12 -53 12 -74v-6q-2 -18 -33 -43q-35 -29 -71 -33q-5 -1 -10 -1q-27 0 -38 20q-14 23 -19 445z" />
<glyph unicode="j" horiz-adv-x="620" d="M23 49q-3 26 -3 48q0 75 33 87q14 4 31 -10q27 -20 27 -61q0 -51 58 -122t124 -97q46 -19 71 -19q14 0 21 6q37 27 49 262q4 100 15 416q12 393 18 416q8 25 28.5 20.5t61.5 -37.5q20 -16 27.5 -24t12.5 -20q3 -7 3 -19q0 -8 -1 -17q-3 -26 -5 -58t-7 -102.5t-9 -148.5 q-20 -573 -29.5 -704t-28.5 -148q-17 -14 -62 -14q-20 0 -46 3q-82 9 -133 38q-23 12 -50.5 23.5t-39 17.5t-34 27.5t-55.5 60.5q-41 49 -57 86t-20 90zM406 1226q-3 8 -3 15q0 21 19 41q21 25 45 25q29 0 63 -35q35 -35 35 -63q0 -24 -24 -44q-21 -17 -45 -17q-5 0 -10 1 q-31 4 -51.5 26.5t-28.5 50.5z" />
<glyph unicode="k" horiz-adv-x="745" d="M20 504v5q0 24 4 53q4 32 12.5 125t14.5 206q12 188 23.5 256.5t38.5 101.5q15 20 30 20q3 0 5 -1q16 -4 51 -43q35 -35 35 -50q0 -16 -23 -61q-31 -66 -31 -245t12.5 -190t55.5 17q63 41 198.5 106.5t157.5 65.5q31 0 72 -32q27 -21 27 -42q0 -30 -58 -57 q-23 -8 -74 -26q-94 -33 -116 -56q-18 -16 -68.5 -43.5t-87.5 -52t-41 -41.5q-4 -23 117 -159t209 -205q141 -112 141 -175q0 -13 -6 -24q-12 -27 -64 -33h-3q-27 0 -75 38q-51 40 -171 159q-185 182 -212 182q-2 0 -4 -3q-10 -24 -14 -234l-4 -211l-57 -5q-11 -1 -21 -1 q-40 0 -53 20q-11 12 -11 131q0 59 3 145q3 103 3 173q0 105 -7 137q-9 23 -9 49z" />
<glyph unicode="l" horiz-adv-x="204" d="M20 600v140q0 526 7 538q9 14 30 14q7 0 15 -2q34 -6 57 -30q18 -20 25.5 -131t13.5 -488q10 -584 14 -655q1 -18 1 -31q0 -23 -4 -33q-7 -14 -44 -24q-20 -7 -37 -7q-26 0 -45 17q-20 20 -25 136t-8 556z" />
<glyph unicode="m" horiz-adv-x="1077" d="M39 795q15 17 34 17q26 0 60 -32q27 -27 36 -53.5t9 -79.5q0 -84 19 -84h4q16 6 20 22.5t20.5 52.5t55.5 79q39 39 59.5 50t44.5 3q72 -23 111 -84t59 -186q12 -68 33 -68q14 0 14 37q0 29 43.5 122t63.5 105q17 11 29 66q12 54 55 72q24 10 49 10q19 0 39 -6 q45 -14 68 -45q49 -68 63 -167.5t21 -392.5l8 -389l-47 -18q-25 -8 -42 -8q-24 0 -34 16q-21 38 -21 296v46v17q1 109 1 189q0 160 -3 202q-4 63 -28 94q-20 27 -29.5 25.5t-38.5 -35.5q-35 -39 -89 -192.5t-56 -160.5q-14 -25 -29.5 -210t-26.5 -207q-15 -31 -56 -31h-5 q-45 2 -64 35q-18 35 -20 278q-2 338 -66 412q-12 14 -25 14q-25 0 -50 -55l-43 -88q-14 -31 -14.5 -67t-19 -47t-18.5 -271t-22 -283q-18 -18 -60 -20h-9q-34 0 -46 14q-8 14 -10 189.5t-11 375t-34 267.5q-23 64 -23 108q0 42 21 66z" />
<glyph unicode="n" horiz-adv-x="651" d="M23 145v140q-2 164 -2 266q0 101 2 141q4 80 26 92q18 12 33.5 7t42.5 -29q29 -26 35 -50q3 -12 3 -34t-3 -55t-3 -54q0 -43 12 -43h3q14 4 37 66q34 98 143 217q26 27 46 34q9 3 22 3q14 0 33 -4q78 -16 112.5 -65.5t48.5 -164.5q17 -148 16 -400v-42q-2 -282 -22 -301 q-23 -23 -62.5 -23t-56.5 23q-12 12 -12 94q0 18 1 39q2 119 14 252q7 80 7 161q-1 52 -3 105q-8 133 -37 178q-16 23 -27.5 20t-46.5 -40q-49 -53 -87 -137t-81 -305.5t-43 -329.5q0 -80 -8 -100.5t-43 -32.5q-24 -9 -41 -9q-20 0 -29 13q-27 43 -30 368z" />
<glyph unicode="o" horiz-adv-x="813" d="M20 153q4 162 48 287q45 129 67 156q20 25 51 106.5t41 137.5q11 53 68 88q51 30 75 30h2q24 -2 124 -36q92 -31 152.5 -70t60.5 -66q0 -23 22 -41q31 -25 51 -130q12 -63 11 -116q0 -35 -5 -65q-18 -129 -106 -313q-27 -55 -110 -141t-148 -123q-74 -44 -149 -44 q-27 0 -53 6q-102 21 -167 115q-35 51 -35 187v32zM141 119q0 -55 29 -109q18 -35 35.5 -44t62.5 -9q72 0 153 63.5t139 163.5t91 208q20 67 20 130q1 40 -7 78q-20 100 -99 152q-68 45 -106 45q-25 0 -71 -37t-46 -60q0 -12 -41 -79q-57 -96 -108.5 -256t-51.5 -246z" />
<glyph unicode="p" horiz-adv-x="673" d="M23 1114q12 27 23 28h1q12 0 51 -20q25 -14 103 -20t152.5 -11.5t155.5 -41t118 -103.5q27 -42 27 -67q0 -24 -15 -74q-25 -90 -142.5 -210t-220.5 -159l-100 -37l4 -227q4 -225 15 -317q4 -32 4 -59q0 -81 -37 -107q-11 -7 -21 -7q-27 0 -55 44q-20 29 -25.5 111.5 t-5.5 342.5q0 252 -12 483.5t-19 332.5q-4 51 -4 81q0 28 3 37zM168 750q4 -113 11 -138.5t34 -29.5q4 -1 7 -1q56 0 170 109q122 117 122 176q0 23 -37 60q-20 23 -53 30t-111 7q-129 0 -138 -25q-6 -17 -6 -101q0 -37 1 -87z" />
<glyph unicode="q" horiz-adv-x="1017" d="M28 491q-6 27 -6 55q0 60 25 128q39 98 109.5 185t138 138.5t124 81t83.5 29.5q35 0 114.5 -48t96.5 -79q17 -35 17 -93v-6q-1 -63 -21 -83q-24 -24 -24 -326v-25q1 -325 26 -350q14 -14 26.5 -8t36.5 39q45 66 116 129q64 58 83 58q2 0 4 -1q21 -7 21 -37q0 -15 -6 -36 q-15 -64 -60 -119q-43 -49 -106.5 -164t-82.5 -172q-8 -29 -50 -32h-9q-36 0 -57 22q-23 23 -23 123q0 61 -7 131.5t-19.5 164t-18.5 160.5q-14 139 -35 140q-10 0 -28 -23q-35 -45 -101.5 -88t-111.5 -51q-25 -4 -48 -4q-65 0 -118 33q-72 45 -89 128zM154 535 q10 -31 68 -39q15 -3 29 -3q41 0 75 19q49 25 126.5 116t77.5 122q0 29 37 88q26 42 26 55t-20 37q-27 31 -63 31h-4q-37 0 -112 -53.5t-113 -104.5q-49 -70 -93 -159q-36 -74 -36 -100q0 -6 2 -9z" />
<glyph unicode="r" horiz-adv-x="638" d="M22 826q3 108 15 126q18 21 42 21q10 0 21 -4q59 -16 69 -49q4 -12 4 -36q0 -41 -11 -118q-14 -91 -14 -131q0 -26 6 -31q6 -8 25.5 8.5t44 48t42.5 66.5q51 95 174 149q64 28 106 28q39 0 60 -25q13 -17 13 -35q0 -10 -4 -20q-11 -28 -44 -27q-33 0 -116.5 -64.5 t-130.5 -126.5q-57 -76 -90 -177t-40.5 -191.5t-10.5 -172t-10 -138t-30 -70.5q-14 -8 -26 -8q-5 0 -7 1q-14 3 -36 25q-25 27 -32 106.5t-15 436.5q-6 219 -6 335q0 44 1 73z" />
<glyph unicode="s" horiz-adv-x="845" d="M20 606q0 51 13.5 76t58.5 66q76 68 130 102t128 59q81 30 132 30h4q52 -1 114 -32q90 -43 133 -137q17 -38 17 -64q0 -34 -29 -47q-6 -4 -16 -4q-25 -4 -48.5 16.5t-46 48.5t-52.5 50q-27 20 -71 21q-5 -1 -10 -1q-51 -2 -121 -36q-88 -47 -143 -95q-37 -31 -41 -43 t14 -30q41 -39 244 -70t246 -59q49 -33 65.5 -33t50 -65.5t33.5 -96.5q0 -43 -42 -112.5t-89 -104.5q-61 -47 -180 -104q-74 -37 -121 -47.5t-127 -10.5q-102 0 -143 22.5t-82 100.5q-22 44 -22 87q0 29 10 57q13 33 31 33q10 0 22 -11q6 -6 14 -18q27 -43 39 -74 q12 -34 122 -34h6q116 1 183 38q68 37 95 37q25 0 82 64.5t57 93.5q0 23 -42 40t-151 39q-129 27 -204.5 46.5t-133 39t-82 43t-36 51t-11.5 68.5z" />
<glyph unicode="t" horiz-adv-x="1032" d="M57 516q-36 32 -36 61q0 63 172 109q23 6 47 12q96 23 127.5 37.5t42.5 40.5q10 28 7 56v9q0 30 17 97q29 88 29 190.5t12 114.5q11 12 30 12q9 0 19 -2q33 -8 58 -34q24 -27 24 -63q0 -34 -35 -218q-13 -72 -13 -108q0 -26 7 -32t36 -7q43 0 136 14q100 14 135 14 t62 -18q35 -23 35 -40q0 -27 -88 -40q-80 -12 -209 -47l-127 -33l-23 -90q-23 -92 -35 -258q-4 -55 -5 -92v-11q0 -31 4 -58q6 -32 13 -48t24.5 -25.5t39 -8.5t56 11.5t73.5 26.5t96 43q123 57 154 65.5t45 -14.5q25 -33 25 -45q0 -25 -52.5 -72t-109.5 -73 q-86 -41 -135 -76q-53 -37 -136 -45q-20 -2 -37 -2q-56 0 -87 20q-53 35 -79 145q-18 76 -18 170q0 43 4 91q12 163 12 226q0 32 -3 38q-4 12 -31 14q-5 1 -10 1q-42 0 -133 -42q-74 -35 -94.5 -36.5t-45.5 20.5z" />
<glyph unicode="u" horiz-adv-x="761" d="M23 39q-3 13 -3 36q0 59 18 186q25 177 66 337q37 139 37.5 192t20.5 76q20 20 30 20t58 -26q33 -16 45 -36.5t8.5 -49.5t-15.5 -56.5t-29 -73.5t-26 -85q-63 -289 -72 -390q-2 -20 -2 -37q0 -67 29 -79q3 -1 7 -1q35 0 129 100q104 110 116 165q8 37 23.5 59.5t29 31 t22.5 41t11 90.5q2 207 76 233q7 2 15 2q31 0 69 -39q32 -34 32 -48q0 -15 -20 -64q-26 -66 -26 -287v-17q0 -158 6 -209t33 -98q30 -51 30 -82q0 -47 -69 -47q-35 0 -51.5 15.5t-40.5 68.5q-37 86 -37 121q0 31 -20 31q-38 0 -148 -117q-80 -86 -106.5 -102.5t-92.5 -16.5 q-59 0 -77.5 8.5t-37.5 40.5q-25 51 -38 107z" />
<glyph unicode="v" horiz-adv-x="841" d="M20 654v17q0 61 27 66q4 1 9 1q32 0 72 -38q46 -43 48 -84q0 -51 68.5 -249.5t87.5 -204.5q8 -2 23.5 16.5t29.5 46.5l82 170q78 166 154.5 303.5t89.5 165.5q25 50 42 56q2 1 5 1q16 0 43 -28q20 -26 20 -44q0 -17 -14 -54q-12 -39 -25.5 -63.5t-34 -57.5t-38.5 -72 l-113 -219q-37 -75 -37 -104q0 -20 -55 -136t-55 -131q0 -20 -29 -75q-16 -35 -32 -45q-12 -7 -34 -6q-9 0 -20 1q-31 2 -46.5 13.5t-21.5 28t-22.5 63.5t-36.5 92q-106 229 -107 295q0 41 -39 125q-37 74 -41 150z" />
<glyph unicode="w" horiz-adv-x="1101" d="M20 667.5q0 20.5 9 51.5q17 37 37 40h3q21 0 62 -28q31 -18 39 -40.5t8 -82.5q0 -57 12.5 -131t33 -167t26.5 -130q18 -106 47 -106h2q10 0 16 20t44 108.5t57 147.5q18 61 43.5 127t40.5 111q10 33 24.5 44t48.5 15q6 1 12 1q45 0 76 -42q35 -47 82 -184 q43 -127 50 -135q6 -6 20 11t27.5 43t13.5 42q0 20 42 113.5t60 181.5q18 90 41 150t39 78q13 15 21 15q2 0 4 -1q21 -7 21 -108v-40q-4 -140 -31 -221l-80 -238q-23 -72 -41.5 -115.5t-25.5 -54t-10 -17.5t-3 -22q0 -35 -34 -62.5t-68.5 -29.5t-55.5 23q-18 27 -57 149.5 t-49 177.5q-13 78 -34 78h-3q-14 -4 -29 -39q-10 -31 -30.5 -71.5t-31 -70.5t-10.5 -56q0 -27 -39.5 -125t-95.5 -213q-24 -47 -66 -53q-6 -1 -10 0q-36 0 -66 32q-34 37 -34 95q0 29 -29.5 130t-44.5 203q-10 68 -25.5 136.5t-26.5 108.5t-21.5 85t-10.5 65.5z" />
<glyph unicode="x" horiz-adv-x="944" d="M45 -111q-23 15 -23 45q0 36 34 92q62 104 268 341l92 104l-115 109q-101 98 -123 156q-6 16 -6 29q0 35 41 54q35 16 59.5 0t108.5 -108l119 -131l135 137q102 103 139 123q15 8 29 8q21 0 39 -19q26 -24 26 -59q0 -10 -2 -21q-10 -49 -53 -69q-41 -20 -113.5 -103 t-72.5 -108q0 -16 145 -160q126 -123 146 -179q5 -13 4 -25q0 -39 -52 -62q-31 -14 -47 -8t-51 49q-127 152 -205 217l-55 47l-223 -235q-212 -225 -241 -225q-2 0 -3 1z" />
<glyph unicode="y" horiz-adv-x="874" d="M25 -2q-5 26 -5 42q0 26 12 29h3q19 0 53 -53q78 -120 227 -120h17q156 4 218 112.5t77 394.5l12 238l-51 -59q-158 -186 -220.5 -232.5t-160.5 -46.5q-53 0 -94 33t-54 84q-6 23 -6 72q0 88 19 262q28 270 55 321q17 30 47 30h6q35 -3 72 -40q23 -25 27 -41t-1.5 -29.5 t-19.5 -56.5t-24.5 -94t-24.5 -102.5t-22.5 -80t-15.5 -56t-5 -49t10 -42.5q21 -47 61 -47q56 0 146 90t90 109.5t29 35.5q39 23 104.5 155t77.5 214t41 107q27 20 44 21h2q17 0 50 -17q34 -18 34 -61q0 -45 -38 -140q-31 -84 -42 -235.5t-15 -299t-19.5 -292t-70 -246 t-152.5 -127.5q-71 -18 -137 -18q-96 0 -183 37q-147 65 -173 198z" />
<glyph unicode="z" horiz-adv-x="1042" d="M33 313q-10 22 -10 44.5t10 45.5q12 29 30.5 38.5t69.5 9.5q154 2 215.5 41.5t79.5 146.5q8 49 2 58.5t-51 9.5q-35 0 -84 -18.5t-89 -37t-78 -30t-61.5 2t-27.5 60.5q-1 12 -1 23q0 42 18 63q24 27 79 27q43 0 137.5 27.5t128.5 27.5q51 0 74 27q22 27 55 27 q22 0 46 -11q64 -29 63 -90q0 -29 -37 -120t-37 -120q0 -27 12.5 -33t57.5 -4q15 1 26 1q46 0 46 -15q0 -5 -5 -12q-18 -23 -92 -62q-82 -43 -136 -104.5t-54 -108.5q0 -20 -13.5 -46.5t-23.5 -44t-9 -31t29.5 -11.5t90.5 21q39 10 61.5 16t52 12.5t45 8.5t69.5 10t93 14 q61 9 103 9q36 0 58 -7q46 -14 46 -65q0 -47 -37 -64.5t-164 -25.5q-94 -6 -164.5 -21.5t-145.5 -41.5t-120 -38q-45 -10 -85 -24.5t-57.5 -21.5t-32.5 -10q-6 -1 -10 -1q-8 0 -14 3q-10 5 -22 21q-24 33 -24 71q0 8 2 18q6 48 51 124q55 94 55 117q0 16 14.5 33.5t19.5 25 t-12 29.5q-16 14 -51 5q-35 -8 -69 -28q-28 -16 -57 -17q-6 0 -12 1q-36 4 -54 45z" />
<glyph unicode="{" horiz-adv-x="1081" d="M21 283q-5 47 20 71q23 23 102 23q63 0 125 32.5t62 67.5q0 14 7 24.5t17.5 18.5t24.5 37t24 72q39 158 163.5 325.5t224.5 198.5q158 51 231 0q72 -51 20 -90q-39 -29 -129 -29q-51 0 -78.5 -14t-82.5 -74q-68 -68 -134.5 -184.5t-66.5 -163.5q0 -43 -42 -132t-81 -130 q-33 -33 -36 -47.5t16 -42.5q31 -49 38 -125t-16 -137q-25 -70 -26 -209.5t22 -161.5q16 -18 -18 -21q-16 -2 -46 -2q-59 0 -74.5 8.5t-23.5 39.5q-16 66 -13 187.5t23 182.5q14 45 15.5 70.5t-10.5 54.5q-16 33 -33 39t-70 0q-51 -6 -73.5 0t-45.5 31q-31 33 -36 80z" />
<glyph unicode="|" horiz-adv-x="200" d="M21.5 905.5q1.5 67.5 11.5 81.5q68 82 90 -88q10 -68 12 -180q6 -160 25.5 -388.5t19.5 -461.5v-279h-131l6 289q4 141 -1 308t-13 295t-14.5 242t-5 181.5z" />
<glyph unicode="}" horiz-adv-x="624" d="M25 1116q10 29 96 29t135 -27q45 -27 84 -45q39 -16 88 -76.5t59 -101.5t-11 -175t-39.5 -240.5t-0.5 -180.5q20 -51 53 -51q43 0 79 -33t36 -74q0 -102 -139 -125q-37 -4 -54.5 -10t-33 -15t-17.5 -31.5t-3 -49.5t3 -82q10 -147 -17.5 -192.5t-125.5 -45.5h-90l49 84 q35 59 39 89t-12 128q-16 109 -7 151t66 108q20 25 21.5 55.5t-13.5 130.5q-14 131 -10 166t18.5 70.5t14.5 74.5t16 49q25 14 30 100.5t-17 118.5q-25 39 -84.5 60.5t-126.5 17.5q-41 -2 -55.5 5.5t-24.5 39.5q-18 47 -6 78z" />
<glyph unicode="~" horiz-adv-x="966" d="M23 182q-10 57 35 170t92 146q63 43 135.5 8t259.5 -201q82 -74 107.5 -75t86.5 46q41 31 50.5 52.5t7.5 70.5q-6 74 16 82q25 8 79 -49t54 -92q0 -39 -56 -110.5t-116 -106.5q-84 -53 -142.5 -33.5t-185.5 141.5q-45 45 -65.5 64.5t-50 41t-39.5 28t-31.5 3.5t-29 -12.5 t-28 -40t-31.5 -56.5t-38 -83q-8 -20 -25.5 -34.5t-33.5 -16.5q-25 -4 -35 7t-16 50z" />
<glyph unicode="&#xa2;" horiz-adv-x="899" d="M20 -403q0 14 40 112t53 109q23 23 16.5 81t-35.5 85q-70 61 -47 229q10 66 37 105.5t137 150.5q162 164 217 174q33 6 59.5 30.5t61.5 78.5q33 51 56.5 80.5t31.5 34.5t15.5 16.5t17.5 36.5q18 45 58 39.5t69 -56.5q20 -37 13 -54.5t-68 -78.5l-82 -84l41 -33 q68 -53 102.5 -165.5t-8.5 -139.5q-23 -14 -56.5 24t-33.5 80t-25.5 74.5t-56.5 32.5q-18 0 -68.5 -57.5t-50.5 -79.5q0 -10 -72.5 -165t-81.5 -198q-8 -33 -4 -41t25 -2q23 6 60.5 15.5t138 50.5t186.5 94q29 18 41 15t39 -31q68 -82 2 -107q-37 -12 -123 -55t-171 -75 t-165 -40l-117 -10l-53 -90q-25 -43 -46 -83t-28.5 -57.5t-18.5 -31.5t-22.5 -17.5t-31.5 -3.5q-51 0 -52 7zM151.5 129q-1.5 -20 22.5 -53q16 -25 35 0q19 24 76 143q86 180 69 197q-8 8 -37.5 -19.5t-66.5 -78t-62 -101.5q-35 -68 -36.5 -88z" />
<glyph unicode="&#xa3;" horiz-adv-x="1458" d="M20.5 -158q2.5 19 30.5 66q61 100 162.5 165.5t222.5 82.5q53 6 72.5 19t40.5 54q31 66 37 103q4 23 -6.5 28t-42.5 0q-106 -14 -127 -6t-21 68v74h219l21 100q82 407 291 528q55 31 152 -6t132 -102q23 -43 18 -103.5t-34 -87.5q-39 -35 -66.5 -19.5t-27.5 71.5 q0 55 -23.5 79.5t-77.5 24.5q-78 0 -149.5 -115.5t-81.5 -251.5l-4 -82l90 5q61 2 114.5 12t77 18t46 6t40.5 -20q20 -20 21.5 -28.5t-17.5 -20.5q-27 -16 -100 -35q-12 -4 -37 -10q-86 -20 -119.5 -28.5t-76.5 -26t-53.5 -23.5t-26 -30.5t-17.5 -42t-10 -62.5 q-2 -10 -2 -17l-12 -67l176 -88q119 -57 169 -72.5t136 -15.5q98 -2 203 8q47 4 60.5 0t17.5 -31q8 -55 -47.5 -81.5t-184.5 -33.5q-115 -4 -154.5 4.5t-131.5 57.5q-319 168 -320 76q0 -37 -70.5 -159t-128.5 -185q-31 -33 -56.5 -42.5t-94.5 -9.5q-88 0 -127 33t-82 141 q-23 59 -20.5 78zM148 -185.5q-3 -15.5 20 -50.5q33 -51 63.5 -57t69.5 31q45 43 99 143t46 123q-10 25 -28.5 22t-91.5 -38q-33 -16 -73 -48t-63 -61q-39 -49 -42 -64.5z" />
<glyph unicode="&#xa7;" horiz-adv-x="823" d="M20 232q-2 42 17 96q29 94 64.5 135t86.5 41q61 0 103 45l41 43l-47 74q-96 152 -43 252q23 45 92 114.5t104 81.5q57 20 140 -2q51 -16 138 -101t87 -118q0 -88 -90 -25q-23 14 -47 37q-74 70 -120 73t-104 -56q-51 -53 -63 -88t7.5 -78t86.5 -133q111 -145 111 -168 q0 -16 18.5 -47t36.5 -77t18 -104q0 -53 -11 -82.5t-46 -66.5q-55 -63 -113.5 -74.5t-150.5 25.5q-96 39 -129 100q-37 68 -55 64q-23 -8 12 -93l16 -32q35 -68 113 -148q47 -49 63.5 -79.5t22.5 -84.5q8 -84 -27 -125q-23 -29 -50.5 -35t-119.5 -2l-137 5l64 34 q63 35 104 74t41 66q0 31 -47 75q-51 47 -100.5 123t-61.5 123q-23 96 -25 138zM262 287.5q-6 -78.5 66 -129.5q47 -35 74.5 -35t70.5 33q47 35 44 110.5t-50 149.5q-47 72 -52 70.5t-63 -50.5q-84 -70 -90 -148.5z" />
<glyph unicode="&#xab;" horiz-adv-x="1146" d="M25 299q-8 31 2 49.5t57 54.5q100 80 225 202t144 159q10 20 26.5 35.5t28.5 15.5q31 0 62.5 -30.5t31.5 -59.5q0 -14 -56.5 -77.5t-135.5 -137.5l-193 -182l74 -49q74 -50 92 -50q14 0 88 -35.5t92 -35.5q37 0 91.5 -49.5t19.5 -92.5q-16 -20 -65.5 -23t-69 16.5 t-147.5 84t-146 64.5t-115 45q-51 25 -75.5 46t-30.5 50zM539 446q-23 78 114 146q43 18 118 84.5t132.5 121t63.5 54.5q20 0 57 -32t37 -50q0 -10 -39 -55t-92 -99q-111 -106 -113 -124q0 -10 21 -23q39 -18 65 -18q25 0 89.5 -30t109.5 -80t6 -91q-16 -16 -30.5 -14 t-47.5 24q-41 29 -177 63.5t-206 34.5q-47 0 -69.5 18.5t-38.5 69.5z" />
<glyph unicode="&#xad;" d="M55 469q37 35 78 27q25 -8 115 3t218 30.5t198 25.5q104 9 114 25q29 45 113 -29q96 -84 -51 -113q-37 -8 -148 -18q-119 -12 -225.5 -30.5t-162.5 -32t-105 -22.5t-79 -6t-59 19q-76 51 -6 121z" />
<glyph unicode="&#xbb;" horiz-adv-x="1089" d="M20 688q1 50 13 62q43 43 157 -54q68 -55 176.5 -114.5t141.5 -59.5q39 0 78 -30.5t39 -61.5q0 -37 -149.5 -190.5t-252.5 -223.5q-76 -53 -96.5 -59t-40.5 16q-29 33 -29 52.5t131 134.5q92 78 138.5 124t61.5 80.5t0 54t-60 40.5q-170 82 -239 132t-69 97zM481 731 q-6 51 4 78q25 70 174 -49q61 -49 115.5 -70.5t86.5 -21.5t72 -14.5t79 -53.5l57 -57l-98 -109q-100 -106 -191 -229q-74 -98 -152.5 -173t-107.5 -75q-41 0 -14 72q14 39 45 82l147 200q35 47 53.5 76t27.5 57.5t6 45t-23.5 37t-49 38t-79.5 41.5q-92 47 -120 69.5 t-32 55.5z" />
<glyph unicode="&#xbf;" horiz-adv-x="552" d="M21 -101.5q2 33.5 24 74.5q14 23 46 53.5t63 51.5q162 111 200.5 172t10.5 153q-23 66 -11 84q12 20 56.5 15.5t66.5 -31.5q29 -31 47 -100q27 -96 -31.5 -195.5t-181.5 -169.5q-90 -51 -111.5 -101t-9.5 -181l13 -134h-144l-24 162q-16 113 -14 146.5zM268 762 q7 21 17 39q10 20 58 12t75 -35q72 -70 -8 -143q-63 -61 -117 -10q-51 51 -25 137z" />
<glyph unicode="&#xc0;" horiz-adv-x="813" d="M29 -94q61 131 61 194q0 27 3 40.5t9.5 21.5t17.5 37.5t21 76.5q14 66 47 156t48 146q10 43 23 80.5t18.5 54t9.5 42t4 58.5q0 68 21.5 90.5t61.5 21.5t70 -24q33 -23 89.5 -226.5t70.5 -232.5q23 -43 46.5 -129t23.5 -127q0 -51 65 -184q43 -84 51.5 -115.5t-6.5 -56.5 q-20 -39 -53 -39q-27 0 -60.5 42t-33.5 75q0 18 -26.5 48t-26.5 64q0 53 -34 65.5t-132 -3.5q-115 -18 -150 -37q-31 -16 -50 -61t-19 -101q0 -53 -41 -82t-65.5 -24.5t-51.5 43.5q-31 47 -12 86zM204 1472.5q-15 38.5 5 61.5q29 29 79 -1t142 -126q135 -143 135 -168 q0 -51 -112 12q-90 49 -187 140q-47 43 -62 81.5zM289 207q16 -18 104 0t105 43q18 31 -21 158q-14 43 -26.5 88t-17.5 66.5t-11 40t-11 24.5t-14 6q-27 0 -78 -202t-30 -224z" />
<glyph unicode="&#xc1;" horiz-adv-x="927" d="M22.5 -90q0.5 24 16.5 38.5t34.5 35t18.5 36.5q0 14 23.5 67.5t60.5 148t62 186.5q10 43 50 128t89 261q4 14 23.5 20.5t44 0t48 -17.5t40 -28.5t16.5 -35.5q0 -12 27.5 -43t37.5 -80q14 -66 42 -146t42 -98q23 -18 39.5 -11t45 16t51.5 1q31 -12 25.5 -50t-42.5 -52 q-41 -16 -63 -43q-18 -23 -3 -70t95 -213q43 -92 46 -132t-36 -62q-37 -25 -86 19t-65 118q-12 49 -34 104t-35 90t-13 49q0 33 -28 35t-120 -22q-141 -39 -184 -69t-72 -114q-41 -115 -78 -141t-90 23q-29 27 -28.5 51zM339 279q9 -33 69 -19q111 23 134 81t-32 173 q-37 78 -57 78q-14 0 -31 -37l-55 -147q-37 -96 -28 -129zM479.5 969.5q12.5 54.5 57.5 109.5q63 80 129.5 185.5t101.5 148.5t70 39q31 -4 48 -13t19 -25.5t-1 -30t-18.5 -37t-25.5 -37t-29 -35.5q-12 -14 -18 -21.5t-13 -17.5t-10.5 -16.5t-3.5 -10.5q0 -8 -18 -29.5 t-67.5 -74.5t-92.5 -103q-41 -47 -73.5 -76.5t-40.5 -25.5q-27 16 -14.5 70.5z" />
<glyph unicode="&#xc2;" horiz-adv-x="888" d="M21 -293q-3 41 24 66q20 14 30.5 72.5t55.5 250t127 445.5q16 51 36.5 124.5t35 124t22.5 68.5q12 23 43 29t58 -13q18 -12 48.5 -71.5t30.5 -83.5q0 -14 14.5 -55t44.5 -128t56 -178q23 -76 52.5 -151.5t56 -127.5t51 -102.5t39 -83t20.5 -60.5t-5 -44t-40 -27 q-37 -10 -69.5 23t-55.5 104q-14 49 -60 140.5t-54 91.5q-25 -2 -111 -34t-100 -46q-31 -27 -86 -33l-54 -6l-18 -172q-12 -121 -23.5 -151.5t-45 -50t-47 -18.5t-40.5 25q-33 31 -36 72zM104 1099q5 21 33 62q25 39 68 87t66.5 78t23.5 50q0 27 16.5 50.5t45 26.5t65.5 -40 q47 -53 120.5 -124.5t119.5 -108.5q47 -39 45 -64.5t-54 -25.5q-25 0 -95.5 39.5t-147.5 97.5q-20 14 -51 -1.5t-46 -45.5q-45 -98 -73.5 -136t-61.5 -43q-29 -2 -42 7.5t-25 38.5q-12 31 -7 52zM293 240q-6 -53 1 -62.5t46 -5.5q70 6 131 37.5t61 62.5q0 41 -51 199 q-51 150 -80 137q-12 -4 -20 -45q-4 -20 -44 -143t-44 -180z" />
<glyph unicode="&#xc4;" horiz-adv-x="980" d="M25 -385q-10 33 4 116t43 138q33 68 32 96q0 23 46.5 116t46.5 120q0 33 32 98q53 104 94.5 225t65.5 172q45 92 45 129q0 33 21.5 57.5t40.5 24.5q20 0 61 -42t41 -60q0 -16 45 -168t124 -357.5t146 -306.5q29 -45 42.5 -111.5t-5.5 -76.5q-27 -16 -73 10.5t-60 63.5 q-18 45 -64 135t-63 90q-18 0 -127.5 -56.5t-118.5 -70.5q-6 -10 -28.5 -16.5t-65.5 -25.5t-88 -56q-47 -41 -60.5 -68t-19.5 -96l-8 -105h-70q-70 0 -79 25zM271.5 1185.5q-5.5 41.5 11 58t51.5 9t65 -31.5q27 -25 32 -37.5t-7 -32.5q-18 -31 -59 -38t-68 13 q-20 18 -25.5 59.5zM303 127q-8 -18 4 -35q14 -8 126 45t163 94l41 33l-35 107q-14 39 -28.5 85t-22.5 73.5t-17.5 53t-14.5 38t-9 12.5q-8 0 -28.5 -45t-53.5 -124t-51 -116q-35 -76 -35 -106q0 -23 -15.5 -60t-23.5 -55zM563 1198q0 29 4 46.5t15.5 22.5t19.5 6t24.5 -8.5 t23.5 -13.5t24 -16q47 -35 49 -54.5t-41 -47.5q-45 -29 -82 -8.5t-37 73.5z" />
<glyph unicode="&#xc7;" horiz-adv-x="1042" d="M23 299q6 98 50 203.5t103.5 187.5t119.5 149.5t102 104.5t48 37q21 0 84 35q55 31 103.5 35t120.5 -17q100 -27 130.5 -116t-12.5 -230q-23 -74 -59.5 -88t-71.5 39q-20 31 -20 47t22 62q35 72 10.5 123t-88 54t-147.5 -46q-61 -41 -152.5 -149.5t-138.5 -197.5 q-41 -78 -59 -204.5t2 -194.5q18 -63 53 -91t104.5 -22.5t171 43t263.5 113.5q154 74 203 69t56 -37t-36 -50q-35 -14 -68.5 -34t-138.5 -69q-37 -16 -103.5 -48t-88 -41t-66.5 -22.5t-100 -23.5q-215 -39 -313.5 54.5t-83.5 324.5zM391 -410l6 105q9 106 17 128.5t59 10.5 q57 -14 75.5 -36.5t18.5 -80.5q0 -84 -17.5 -105.5t-82.5 -21.5h-76z" />
<glyph unicode="&#xc8;" horiz-adv-x="1040" d="M21.5 -271.5q-3.5 23.5 1 70.5t9.5 98.5t15 143.5t16 180q6 80 22.5 207t27 212t4.5 112q-12 49 20 133q49 121 127 57q10 -8 21 -18q31 -35 100 -31t227 49q139 39 229.5 36t90.5 -46q0 -14 -27.5 -23.5t-78 -19.5t-76.5 -21q-12 -4 -133 -33.5t-231 -64.5t-130 -57 q-16 -16 -35.5 -131t-9.5 -131q14 -27 121.5 -18t206.5 44q211 76 262 25q25 -27 16.5 -42.5t-63.5 -37.5q-57 -25 -231.5 -73t-250.5 -62q-16 -2 -23 -3t-17.5 -6.5t-12.5 -9.5t-7 -15t-5 -22.5t-4 -36t-6 -49t-6.5 -66.5t-10.5 -83q-20 -154 -4 -168q14 -14 128 1t204 44 q211 66 293 84t135 14t66.5 -13t17.5 -44q2 -29 -6 -43t-37 -25q-47 -18 -92 -18q-84 0 -447 -113q-102 -31 -240.5 -38t-164.5 18q-8 10 -11.5 33.5zM153.5 1407q-14.5 47 10.5 76q23 29 51 28q23 0 186.5 -162.5t163.5 -185.5q0 -47 -100 -4q-106 47 -182 131 q-37 41 -78 58q-37 12 -51.5 59z" />
<glyph unicode="&#xc9;" horiz-adv-x="894" d="M23 723q-8 301 2 317q10 14 50 2t70 -38q16 -14 45 -18.5t63 -0.5t116 10t166 9q88 2 116.5 -2.5t28.5 -20.5q0 -27 -227 -84q-16 -4 -45 -10q-63 -16 -90 -22.5t-65 -20t-49 -17.5t-29.5 -21.5t-20.5 -24.5t-7.5 -33.5t-4.5 -43t1 -57.5q2 -18 2 -29l5 -178l65 -6 q33 -2 93.5 11.5t122 30t120.5 30.5t100 13t49 -23q6 -12 2 -28.5t-14 -27.5q-33 -29 -184.5 -75t-169.5 -54q-55 -25 -111 -28l-55 -7l8 -155q2 -51 4 -80t5 -57.5t11.5 -41t16.5 -23.5t24.5 -12t34 -2t47.5 3q78 8 123 29.5t119 35.5q57 12 100.5 28.5t61.5 29t35.5 20.5 t32 6t38.5 -18q35 -23 43.5 -70t-22.5 -57q-10 -4 -82 -23.5t-164 -46t-166 -51.5q-113 -37 -176 -37t-76 -18q-8 -12 -55 -6t-68 22q-14 14 -22 342zM401 1155q-16 39 76 158q33 41 72 82q76 78 111.5 90t74.5 -29q33 -39 21.5 -69.5t-62.5 -45.5q-25 -6 -72 -39.5 t-92 -74.5q-113 -111 -129 -72z" />
<glyph unicode="&#xca;" horiz-adv-x="768" d="M24 -141.5q9 118.5 48 280.5q27 113 67.5 406t40.5 362q0 47 23 70q25 23 48 19.5t64 -35.5l47 -37l115 39q55 18 118.5 25t108 0t44.5 -23q0 -18 -141.5 -84t-176.5 -66q-25 0 -96 -61l-70 -62v-145q0 -45 1 -71.5t4 -42t8.5 -19.5t13.5 -2q18 4 81.5 14t117 20.5 t65.5 20.5q18 16 74.5 27.5t89.5 -24.5t12.5 -63.5t-90.5 -41.5q-45 -8 -135 -44t-121 -36q-45 0 -102 -37q-39 -23 -53.5 -48.5t-26.5 -93.5q-20 -104 -25 -186q-6 -76 25 -86q35 -10 246 57q207 68 235.5 58t24.5 -78q-4 -47 -17.5 -60.5t-70.5 -31.5q-82 -25 -125 -25 q-27 0 -119 -35.5t-197 -46.5q-86 -8 -107.5 -4t-37.5 33q-20 39 -11 157.5zM180 1300q0 37 21.5 63t97.5 83q119 88 128 113.5t58 19.5q29 -2 50.5 -25.5t56.5 -87.5q59 -111 82 -116q20 -8 38.5 -53.5t7.5 -62.5t-73.5 16.5t-120.5 88.5l-65 64l-86 -103 q-37 -41 -72 -70.5t-47 -29.5q-35 0 -55.5 26.5t-20.5 73.5z" />
<glyph unicode="&#xcb;" horiz-adv-x="894" d="M20 119q0 209 8.5 329.5t32 264t27.5 176.5q8 63 14 88q14 39 82 10q63 -35 74 -80q0 -29 -16.5 -45t-8.5 -31q10 -18 33 -2q23 18 100.5 39t122.5 21q41 0 73 18.5t89 28.5q45 6 66.5 1t44.5 -30q27 -31 26.5 -39t-26.5 -26q-35 -27 -103 -27q-55 0 -139 -29.5 t-141 -44.5q-86 -16 -137 -55q-37 -27 -47.5 -56.5t-18.5 -127.5q-12 -147 2 -160q14 -16 129 2t228 55q121 37 151 27q29 -12 28 -58t-32 -61q-20 -10 -176 -50t-238 -54q-63 -12 -79.5 -46t-6.5 -128l13 -119l88 4q70 2 158.5 31.5t125.5 29.5q39 0 80 11.5t63.5 21.5 t51.5 10t57 -18q66 -43 53.5 -89t-92.5 -46q-59 -2 -175 -31t-211 -56.5t-196.5 -42t-134.5 12.5q-29 18 -34 51q-8 41 -9 320zM257 1333.5q24 18.5 62.5 8t57.5 -30.5q35 -39 23.5 -71t-64.5 -36q-37 -4 -51.5 4t-26.5 39q-25 68 -1 86.5zM528 1319q18 39 54 44t69 -28 q39 -39 19.5 -77.5t-76.5 -38.5q-45 0 -64.5 29.5t-1.5 70.5z" />
<glyph unicode="&#xce;" horiz-adv-x="897" d="M23 -168q4 29 24.5 36t112.5 11q109 4 133 25q43 31 51 190q2 63 6 283l6 411l-53 -6q-53 -6 -104 -32q-72 -37 -117 -18.5t-45 83.5q0 51 26 68.5t89 11.5q49 -6 149 12.5t204.5 44t119.5 27.5q14 2 45 -35q55 -72 -27 -100q-16 -6 -41 -10q-45 -6 -57.5 -22.5 t-28.5 -86.5q-23 -102 -18 -449l6 -348h170q106 0 142 -6t48 -24q31 -47 -35 -68q-39 -12 -127 -23q-236 -29 -587 -98q-37 -8 -69 33t-23 90zM137 1126q-72 60 41 197q29 35 51.5 67.5t33.5 53t19.5 37t14.5 23.5t12 7q27 0 81 -35.5t69 -62.5q16 -27 77.5 -94.5 t110.5 -124.5t41 -76q-6 -18 -20.5 -23t-39 4t-58 33.5t-81.5 67.5q-125 109 -131 109q-4 0 -28.5 -39t-54 -80t-67.5 -66.5t-71 2.5z" />
<glyph unicode="&#xcf;" horiz-adv-x="837" d="M20 -178l7 51h311l12 274q10 184 27.5 333t30 221.5t12.5 93.5q0 10 -12.5 14t-38 3t-65.5 -7t-99 -19q-53 -10 -76 23t-2 88q12 33 35 40t117 9q96 0 219 14.5t196 12.5q66 0 83.5 -7.5t17.5 -31.5q0 -37 -52 -49l-100 -29q-35 -8 -45 -28.5t-16.5 -59.5t-24.5 -70 q-16 -27 -24.5 -57.5t-21.5 -200.5t-26 -493l-2 -56l158 7q162 8 174 -23q6 -14 -12 -47q-18 -37 -88 -37q-35 0 -115 -12t-165 -26.5t-170 -25t-147.5 -8.5t-80.5 25q-20 27 -17 78zM292.5 1312.5q-4.5 40.5 20.5 65.5t40.5 20t45.5 -44q37 -45 37 -72t-37 -47 q-23 -12 -37 -10t-36 20q-29 27 -33.5 67.5zM582 1264q-18 40 2 79t44.5 38t63.5 -42q41 -43 31 -71.5t-66 -36.5q-35 -4 -50 2t-25 31z" />
<glyph unicode="&#xd1;" horiz-adv-x="1075" d="M20.5 748.5q2.5 37.5 34.5 78.5q37 49 37 97.5t25 81.5q14 20 25.5 22t37.5 -14q78 -47 43 -185q-18 -74 10.5 -126t163.5 -191l316 -332q72 -78 127 -128t61 -44q23 23 34 197t-1 301q-16 150 -18 336t10 198q14 12 30 13q39 0 70 -287t30 -591t-40 -345 q-37 -43 -73 -35t-95 74l-334 348q-156 160 -266 283q-29 31 -35 36t-14 5q-12 0 -12.5 -109.5t10 -242t22.5 -187.5q23 -90 20 -213t-30 -145q-18 -14 -31.5 -10t-42.5 36q-16 20 -22.5 31.5t-11.5 27t-6 48.5t-2 72.5t-5 124.5t-10 184q-16 221 -14 330.5t0.5 147.5 t-17.5 52q-29 23 -26.5 60.5zM246 1079q-10 45 45 125q84 123 171 141.5t222 -53.5q86 -47 122 -41t36 68q0 39 14 53q27 27 53 -45q35 -92 11 -156q-2 -4 -5 -6q-31 -59 -84 -60t-163 54l-136 66l-51 -37q-49 -37 -78 -88q-41 -76 -90 -82t-67 61z" />
<glyph unicode="&#xd3;" horiz-adv-x="1183" d="M20 -29q0 115 35 240t80 174q35 39 35 49q0 14 43 80t113.5 136.5t126.5 78.5q84 14 246.5 3t232.5 -34q84 -29 147.5 -90t77.5 -129q14 -63 0 -179t-43 -171q-31 -53 -31 -76q0 -53 -136 -209.5t-232 -216.5q-39 -25 -88 -31t-183 -6q-129 0 -192.5 11.5t-103 43 t-78.5 101.5q-33 53 -41.5 94t-8.5 131zM162 -20q0 -121 7 -153t44 -71q57 -57 139 -77.5t172 4.5q129 33 251 147.5t197 270t75 300.5q0 55 -10.5 81t-49.5 61q-59 55 -94 63q-145 29 -290.5 9.5t-205.5 -74.5q-33 -31 -93 -114t-60 -97q0 -10 -41 -97q-25 -51 -33 -102 t-8 -151zM793 909q0 27 25.5 68t107.5 141q41 49 83 60.5t72 -19.5q23 -25 21 -57.5t-31 -42.5q-20 -6 -133 -105q-125 -111 -143 -69q-2 8 -2 24z" />
<glyph unicode="&#xd4;" horiz-adv-x="1185" d="M70 -193q-102 213 6 525q23 68 44 118t32.5 70.5t17.5 34.5t6 25q0 12 16.5 34.5t46 61.5t48.5 67q27 43 104 115q57 53 65.5 74.5t0.5 87.5q-8 59 -2 82.5t37 56.5q27 31 59.5 76t53 68.5t32.5 23.5t54 -23.5t104.5 -56.5t109.5 -49q133 -47 107 -117q-8 -20 -25.5 -23 t-73.5 5q-86 12 -155 51l-72 39l-37 -43q-29 -37 -24.5 -55.5t41.5 -7.5q31 8 67.5 -31t36.5 -80q0 -20 23.5 -42t80.5 -52q102 -53 154.5 -103.5t91.5 -132.5q57 -123 41 -251t-112 -324q-37 -76 -190.5 -232.5t-215.5 -181.5q-63 -27 -227 -27q-119 0 -151 8.5t-79 49.5 q-29 25 -62.5 70.5t-53.5 88.5zM174 72q0 -127 7 -170t38 -99q68 -115 187.5 -121t257.5 101q84 66 219 228.5t135 199.5q0 29 26 78q20 41 13.5 130t-35.5 161q-14 37 -95 108.5t-108 71.5q-10 0 -69.5 27.5t-87.5 25.5q-98 -8 -135.5 -26.5t-108.5 -94.5 q-94 -105 -94 -123q0 -14 -37 -65t-37 -70q0 -23 -37 -100q-23 -45 -31 -97.5t-8 -164.5z" />
<glyph unicode="&#xd6;" horiz-adv-x="960" d="M20 135q0 115 9.5 171t44.5 145q120 308 282 460q49 45 77 57.5t89 12.5q43 0 76 -7t49.5 -14.5t48 -24.5t47.5 -26q88 -43 156 -194q27 -59 34 -116.5t7 -213.5q-2 -160 -9 -218t-36 -126q-68 -158 -217.5 -286t-265.5 -128q-47 0 -134.5 46t-130.5 96 q-80 86 -103.5 154.5t-23.5 211.5zM149.5 147.5q-6.5 -194.5 81.5 -311.5q37 -49 93.5 -63.5t146.5 6.5q96 20 177 115.5t167 285.5q31 72 41 206t-12 204q-33 102 -64 151t-86 84q-61 39 -88.5 40t-103.5 -34q-135 -61 -246 -286q-100 -203 -106.5 -397.5zM313.5 1268.5 q-4.5 31.5 10 46t34 11.5t56.5 -28q43 -29 43 -55t-45 -47q-31 -14 -44.5 -12t-29.5 24q-20 29 -24.5 60.5zM694 1246q-14 46 2 79q20 39 33 39q16 0 56 -42t40 -60.5t-31.5 -40t-58.5 -21.5t-41 46z" />
<glyph unicode="&#xd9;" horiz-adv-x="1110" d="M23 -109q-10 117 10 311.5t46.5 365.5t26.5 212q0 51 11.5 83t39 40t70.5 -22q23 -18 25 -38t-14 -95q-39 -172 -78 -564q-14 -145 -12 -199.5t22 -125.5q27 -90 64.5 -123t105.5 -23q78 12 187.5 165t164.5 325q6 23 31 93.5t32 100t19 101t17 159.5q10 139 18 172 t41 48q27 12 42 9t36 -26q25 -25 27.5 -58.5t-9.5 -156.5q-18 -207 22 -497.5t97 -354.5q29 -33 23.5 -85t-37.5 -60q-55 -10 -107.5 90t-89.5 287q-23 115 -41 112q-10 0 -22 -39q-27 -94 -94.5 -204.5t-145.5 -188.5l-117 -115h-115q-96 0 -140 22.5t-97 100.5 q-47 70 -59 178zM315 1438q23 35 79.5 10t84.5 -82q27 -51 127 -156q82 -84 117 -155.5t6 -98.5q-12 -12 -58 26t-155 153q-135 139 -178 203.5t-23 99.5z" />
<glyph unicode="&#xda;" horiz-adv-x="1079" d="M20 -37q0 131 55.5 464t55.5 364q0 29 5 57.5t18.5 53t39 22.5t60.5 -41q27 -29 30 -43.5t-5.5 -31.5t-25.5 -86t-30 -165q-14 -106 -28.5 -176t-23.5 -131.5t-15 -194.5q-8 -135 -4 -182t28 -104q29 -63 57.5 -81t69.5 4.5t109 92.5q47 47 72.5 79t36 48t34 60t45.5 85 q147 252 184 357l60 164q27 72 35 137t5 96t7 50.5t43 23.5q53 6 78.5 -37t9.5 -107q-14 -51 -37.5 -238.5t-36.5 -254.5q-25 -139 -22.5 -280.5t28.5 -196.5q33 -66 28 -109t-46 -49q-43 -6 -69.5 47t-47.5 188q-31 219 11 314q14 33 -7 33q-8 0 -20 -15.5t-21 -36.5 q-23 -53 -104 -204l-70 -129q-23 -45 -94 -127l-72 -84l-143 -7q-100 -4 -129 2.5t-57 36.5q-37 41 -67 142.5t-30 189.5zM646 999.5q1 14.5 26 55.5q29 49 134.5 141t115.5 117q10 31 42.5 32t65.5 -30q41 -37 24.5 -72t-104.5 -106l-186 -146q-47 -39 -62.5 -42t-36 16.5 t-19.5 34z" />
<glyph unicode="&#xdb;" horiz-adv-x="1001" d="M20 -4q0 104 28 270t60.5 316.5t34.5 181.5q10 86 43 117q25 23 37.5 22.5t44.5 -22.5q37 -25 42 -55.5t-9 -62.5t-39.5 -105.5t-38.5 -153.5q-57 -336 -63 -434.5t28 -190.5q10 -29 26.5 -40t45.5 -11q51 0 155.5 102.5t153.5 200.5q29 55 58.5 102.5t41 66.5t11.5 34 q0 27 39 78q29 39 43 150.5t20.5 223t16.5 136.5q10 27 48 20.5t60 -39.5q16 -27 17.5 -62.5t-9.5 -125.5q-20 -147 -7.5 -343t48.5 -319q31 -106 23 -147t-61 -41q-35 0 -53.5 31.5t-41.5 128.5q-29 135 -47 139q-14 4 -49 -37q-45 -51 -47 -66q0 -18 -68.5 -112 t-119.5 -146q-94 -94 -206 -117.5t-169 38.5q-45 47 -71 119.5t-26 152.5zM369 1149q0 53 137 248q35 49 88 34.5t92 -83.5q10 -14 28.5 -39t37 -48.5t40 -51t37 -52t25.5 -46t8 -39t-17.5 -28t-72.5 27.5t-131 106q-49 45 -61.5 48t-26.5 -24q-20 -37 -21 -59 q0 -23 -39.5 -66t-62.5 -43t-42 37t-19 78z" />
<glyph unicode="&#xdc;" horiz-adv-x="1003" d="M22.5 77q8.5 148 79.5 619q27 183 37 226q6 35 38 39t71 -25q33 -23 20 -68q-49 -201 -80.5 -430t-31.5 -385q0 -119 7 -161t32 -76q37 -51 73 -58q37 -6 124 73t143 167l81 131q18 29 53.5 103.5t55.5 113.5q33 59 55.5 169t22.5 210q2 106 24.5 140t81.5 14 q63 -23 71.5 -66t-24.5 -174q-37 -147 -59.5 -349t-7.5 -263q12 -59 49 -109q53 -72 16 -108q-35 -35 -94 6q-20 12 -39 34q-51 59 -53 97q0 41 -12.5 80t-22.5 39q-12 0 -35 -62q-23 -61 -103.5 -165.5t-145.5 -157.5q-70 -53 -131.5 -62.5t-131.5 25.5q-63 33 -82.5 58.5 t-52.5 117.5q-37 109 -28.5 257zM518 1225q-14 35 2 78q10 27 50 20.5t61 -37.5q18 -33 -2.5 -64.5t-63.5 -31.5q-33 0 -47 35zM788 1222.5q-5 41.5 11 55.5q29 29 96 -23q29 -23 34 -36t-7 -33q-18 -31 -50 -37t-59 14q-20 18 -25 59.5z" />
<glyph unicode="&#xdf;" horiz-adv-x="1265" d="M20 -403.5q0 6.5 52 63.5q96 106 147 183t93 162t73 134q55 92 127 293q57 162 77.5 259t20.5 204v139h60q51 0 73.5 18.5t51.5 20.5q38 0 73 27q45 35 108.5 25.5t124 -39t102.5 -84t42 -107.5t-46 -128t-126 -151q-55 -55 -61 -81.5t32 -47.5q37 -18 82 -86 q41 -63 46.5 -154t-29.5 -145q-37 -55 -95.5 -112.5t-95.5 -75.5l-82 -43q-37 -20 -131 -44t-143 -26q-33 0 -45 8.5t-14 32.5q-6 41 22.5 41t58.5 15l154 73q125 57 192.5 141.5t59.5 166t-92 135.5q-61 37 -90 37q-57 0 -80 61q-23 63 18 90q10 8 25 10q45 6 121 58 q45 31 83 71.5t58 79.5t28.5 76t-3 63.5t-39.5 38.5q-59 20 -102.5 14.5t-86.5 -42.5q-57 -47 -73 -37q-27 16 -46 -45q-12 -43 -20 -129q-18 -205 -115 -420q-68 -154 -169 -344.5t-191 -308.5q-51 -66 -74.5 -80.5t-77.5 -16.5q-78 0 -78 6.5z" />
<glyph unicode="&#xe0;" horiz-adv-x="831" d="M33 -61q-31 120 6 190q27 51 27 85t18 44q10 6 44 57.5t85 120t96 109.5q61 55 126 68.5t81 -25.5q10 -29 70 -66q51 -31 68.5 -94t21.5 -229q2 -80 13 -109t61 -78q59 -59 61 -98t-53 -45q-47 -6 -109.5 65.5t-83.5 106.5q-16 23 -22 24t-19 -20q-43 -66 -110.5 -148.5 t-87.5 -91.5q-31 -10 -96.5 -11t-106.5 9q-59 16 -90 136zM53 1225q16 47 107 12q43 -16 162.5 -122.5t160.5 -164.5q82 -113 -28 -59q-53 27 -148 90q-188 127 -207 127q-20 0 -38.5 46t-8.5 71zM168 27q-10 -49 22.5 -81t73.5 -9t113 115.5t72 123.5q0 25 17 61.5 t27.5 65.5t0.5 90q-14 61 -47 69.5t-65 -18t-55.5 -56.5t-23.5 -36q0 -8 -21.5 -36.5t-55 -103.5t-58.5 -185z" />
<glyph unicode="&#xe1;" horiz-adv-x="923" d="M74 -154q-123 127 30 412l48 86q25 51 129 160q86 92 128 103t134 -29q76 -33 101.5 -63t14.5 -69q-18 -76 40.5 -217t136.5 -209q55 -49 64 -79.5t-23 -57.5q-41 -35 -141.5 58.5t-131.5 195.5q-14 41 -36.5 38t-43.5 -48q-86 -195 -256 -291q-80 -43 -113.5 -41 t-80.5 51zM157.5 8.5q-1.5 -55.5 26.5 -65.5q14 -4 79 55t120 129q39 53 79 152.5t40 146.5q0 76 -99 20q-72 -43 -98 -86q-4 -8 -4 -12q0 -10 -37 -62.5t-37 -76.5q0 -31 -37 -96q-31 -49 -32.5 -104.5zM469 877q-4 14 4 41q10 41 48 106.5t51.5 65t74.5 81.5 q39 49 58.5 63.5t42.5 8.5q74 -23 80 -58.5t-58 -78.5q-57 -41 -160 -150q-131 -139 -141 -79z" />
<glyph unicode="&#xe2;" d="M23 -115q14 121 143 333t221 269q51 31 94 35t72 -13t51.5 -38.5t48 -47.5t45.5 -32q25 -10 29 -30.5t-2 -98.5q-14 -152 5.5 -219.5t100.5 -153.5q98 -100 99 -118q0 -23 -33 -29t-68 10q-47 20 -118.5 89t-71.5 91q0 37 -33 19t-45 -62q-16 -66 -118.5 -163 t-176.5 -117q-49 -14 -76.5 -13t-68.5 19q-41 16 -57.5 36.5t-30.5 69.5q-20 80 -10 164zM153.5 -119q-26.5 -106 14.5 -141q27 -23 61 -8q39 14 114 77.5t75 81.5q0 25 28 48q63 53 99.5 203t-0.5 218q-63 121 -244 -167q-14 -25 -31 -54q-90 -152 -116.5 -258zM293 725 q10 47 37.5 85t57.5 79t30 59q0 27 12.5 39t63.5 12q39 0 74.5 -39.5t53 -75.5t17.5 -42q0 -12 16.5 -31.5t43 -49.5t42.5 -61q18 -35 19.5 -48t-17.5 -29q-27 -29 -76 -8.5t-96 79.5q-51 66 -70.5 66t-62.5 -72q-33 -61 -55.5 -69.5t-58.5 26.5q-41 33 -31 80z" />
<glyph unicode="&#xe4;" horiz-adv-x="907" d="M25 -121q-12 70 6 154q14 68 71.5 195.5t77.5 140.5q16 10 17 45q0 27 36.5 54.5t36.5 41.5q0 20 59.5 80.5t82.5 60.5q33 0 101.5 -74.5t68.5 -107.5q0 -43 45 -84q27 -27 36 -53.5t9 -79.5q0 -109 46 -196t124 -126q41 -20 45 -51t-31 -49q-37 -20 -108.5 15.5 t-126.5 103.5l-56 65l-125 -100q-125 -100 -204 -133q-55 -20 -77 -21.5t-63 19.5q-37 18 -51 37.5t-20 62.5zM178 -90q20 -12 77.5 21.5t137.5 105.5q70 63 92.5 105t12 61.5t-23.5 63.5t-7 95q9 70 -14 97t-37.5 25.5t-38.5 -29.5q-104 -123 -175 -319.5t-24 -225.5z M310.5 866q-2.5 39 13.5 68q23 27 38 24.5t50 -34.5q37 -33 38 -50.5t-34 -48.5q-39 -35 -71 -16.5t-34.5 57.5zM572.5 843.5q-10.5 49.5 9.5 74.5q20 27 43 26q31 0 66.5 -32.5t35.5 -61.5t-42 -53.5t-73 -12.5q-29 10 -39.5 59.5z" />
<glyph unicode="&#xe7;" horiz-adv-x="712" d="M31.5 338q29.5 94 156.5 219q61 61 114.5 101t109 63.5t104.5 15.5t90 -49q70 -70 51 -127q-12 -45 -65 -22q-20 10 -45 32q-37 35 -51.5 39t-49.5 -14q-115 -61 -207 -182t-77 -193q10 -57 49 -97t86 -40q35 0 145.5 47t167.5 86q20 14 31.5 11t28.5 -25 q31 -41 17.5 -67.5t-83.5 -63.5q-422 -227 -551 55q-51 117 -21.5 211zM324 -397q43 29 79.5 105.5t36.5 137.5q1 87 13 99q16 14 63 -0.5t68 -38.5q25 -33 10.5 -105.5t-57.5 -138.5q-33 -51 -53.5 -61.5t-88.5 -10.5q-78 2 -71 13z" />
<glyph unicode="&#xe8;" horiz-adv-x="989" d="M22 77q-2 34 16.5 54.5t46.5 57t36 75.5q20 80 117.5 164t210.5 119q90 29 137 20q84 -18 127 -75.5t24 -129.5q-8 -41 -91 -132t-109 -91q-10 0 -33 -15t-64 -38t-88 -37q-90 -29 -104.5 -44t8.5 -58q20 -41 71.5 -71t98.5 -30q94 0 432 187q51 29 81 23.5t30 -42.5 q0 -27 -34 -61.5t-91 -67.5q-12 -6 -63.5 -35.5t-65 -36t-57.5 -29t-62 -27.5t-58 -16t-68 -11t-64.5 2t-73.5 12q-70 18 -112 45t-57.5 52.5t-43 72.5t-58.5 84q-37 45 -39 79zM129 1117q-8 50 10 69q13 14 62 14q39 0 72.5 -23.5t51 -50t35 -50t28.5 -23.5t32.5 -17.5 t56.5 -48.5t62 -49q49 -35 32 -53q-23 -20 -109.5 9.5t-168.5 84.5q-100 70 -131 80q-25 8 -33 58zM257 206q-11 -30 1 -40q18 -12 122.5 40t158.5 99q27 23 46 50.5t19 41.5q0 20 -14.5 27.5t-54.5 7.5q-41 0 -73 -15.5t-81 -60.5q-45 -37 -79 -78.5t-45 -71.5z" />
<glyph unicode="&#xe9;" horiz-adv-x="862" d="M23.5 168q-9.5 100 21.5 182q39 82 60.5 125t42 69.5t29.5 34t38 25t49 33.5q41 31 119 32t119 -28q39 -27 75.5 -99.5t36.5 -121.5q0 -39 -37.5 -115t-58.5 -76q-12 0 -37.5 -17t-76 -42t-115.5 -39q-98 -18 -107.5 -51t64.5 -107q53 -55 74.5 -63t78.5 0 q66 12 106 38.5t56 26.5q25 0 129 72q121 86 137 66q6 -10 0 -52q-12 -55 -37.5 -84.5t-111.5 -82.5q-260 -164 -479 -54q-66 35 -116 131.5t-59.5 196.5zM182 274q6 -12 19 -18q31 -12 99.5 12.5t119.5 65.5q61 49 68 104t-46 90q-45 31 -59 31q-68 -4 -145 -119 q-76 -113 -56 -166zM414 881q0 35 82 128t162.5 168.5t84.5 75.5q12 0 56 -45l43 -47l-172 -160q-170 -158 -197 -174t-43 -0.5t-16 54.5z" />
<glyph unicode="&#xea;" horiz-adv-x="829" d="M20 190q0 78 9.5 117t42.5 96q70 125 134.5 185.5t158.5 95.5q59 20 123.5 19t97.5 -23q37 -27 67.5 -91.5t30.5 -119.5q0 -59 -43 -135t-104 -123q-41 -33 -84 -49.5t-121 -26.5q-131 -18 -148 -33q-16 -16 12.5 -67t69.5 -72q74 -39 197 -15.5t209 93.5q57 47 80.5 42 t19.5 -67q-4 -43 -18.5 -65.5t-61.5 -54.5q-70 -47 -209 -79t-182 -7q-35 18 -65 18q-29 0 -91.5 63.5t-93.5 122.5q-29 55 -31 176zM99.5 890q9.5 42 68.5 79q41 29 113.5 101.5t129 127.5t72.5 55q41 0 72 -38.5t73 -103t91 -101.5q55 -39 78.5 -89.5t-0.5 -74.5 q-23 -20 -89.5 13.5t-146.5 107.5l-96 92l-49 -43q-31 -29 -64 -75t-54.5 -79t-47 -58.5t-55 -24.5t-62.5 32q-43 37 -33.5 79zM182 266q12 -18 77 -16t118 24q90 37 138 106.5t38 143.5q-4 29 -17.5 38t-56.5 11q-45 4 -72.5 -9t-84.5 -68q-70 -63 -113 -134t-27 -96z" />
<glyph unicode="&#xeb;" horiz-adv-x="811" d="M20.5 0q-0.5 104 49.5 201q43 86 157.5 201t180.5 135q70 20 98.5 18t79.5 -33q45 -27 55 -58.5t6 -123.5q-8 -104 -118.5 -222t-227.5 -145q-72 -16 -100.5 -43.5t-7 -58.5t87.5 -53q160 -55 428 145q27 20 54.5 3t27.5 -52q0 -43 -56.5 -95t-144.5 -93 q-96 -43 -223 -43q-106 0 -172 31.5t-127 115.5q-47 66 -47.5 170zM197 106q4 -23 30 -22q29 0 96.5 38t102.5 73q43 41 78.5 119t21.5 98q-12 20 -24 18q-84 -10 -207 -147q-106 -121 -98 -177zM298 784.5q-3 39.5 11 55.5q35 35 82 -9.5t27 -95.5q-10 -25 -43 -27.5 t-56 19.5q-18 18 -21 57.5zM578 879q6 16 22 22t35.5 2t38 -13t31 -26.5t12.5 -36.5q0 -39 -26.5 -64.5t-55.5 -14.5q-27 12 -47 57t-10 74z" />
<glyph unicode="&#xee;" horiz-adv-x="589" d="M20 791q0 45 8.5 59t37.5 18q37 4 173 94.5t140 90.5q12 0 67 -45q39 -33 87.5 -148t33.5 -139q-16 -20 -35.5 -12t-46 33.5t-50 54t-47 51t-36.5 22.5q-20 -2 -102 -65q-123 -92 -149.5 -106.5t-51.5 1.5q-29 18 -29 91zM123 -93q0 169 16 245q10 47 18.5 142t16 168 t21.5 89q23 27 40 23.5t62 -39.5q39 -35 41 -53.5t-16.5 -54.5t-18.5 -81q0 -23 -28.5 -187.5t-18.5 -273.5q4 -35 8 -88q12 -68 8 -100.5t-12 -38.5t-43 -8q-37 -4 -51 4t-27 37q-16 47 -16 216z" />
<glyph unicode="&#xef;" horiz-adv-x="495" d="M20.5 -133.5q4.5 199.5 32.5 346.5q27 137 27 247.5t21.5 132t36 18.5t61.5 -40q39 -33 43 -48t-11 -58q-37 -102 -64.5 -361.5t-10.5 -351.5q16 -92 -5.5 -117.5t-54.5 -24.5t-55 28q-25 29 -20.5 228.5zM28.5 834q0.5 12 20.5 45q57 86 115 0q27 -41 11.5 -77 t-51.5 -38t-73 31q-23 27 -22.5 39zM338 821q-4 53 4 78q10 29 29.5 24t62.5 -51q35 -37 40 -51t-11 -33q-25 -29 -72 -24q-27 4 -38 16.5t-15 40.5z" />
<glyph unicode="&#xf3;" horiz-adv-x="917" d="M20 -180q0 98 11.5 145.5t58.5 145.5t110.5 181t108.5 121t64 38q27 0 56.5 -31t41.5 -72q6 -25 26.5 -40t61.5 -47t84 -83q45 -55 55.5 -86t8.5 -106q-2 -106 -35 -184t-111 -158q-37 -41 -71.5 -47.5t-202.5 -6.5q-182 0 -219 19q-43 23 -48 115v96zM164 -164 q0 -127 25.5 -177t91.5 -50q63 0 168.5 100.5t105.5 159.5q0 31 18 41q20 12 18.5 75.5t-24.5 104.5q-23 45 -78 92q-90 76 -144 54.5t-130 -160.5q-31 -59 -40 -103.5t-11 -136.5zM623.5 680.5q9.5 54.5 54.5 101.5q59 63 151 52q68 -8 68 -50q-2 -20 -23 -43 q-33 -35 -55 -34q-14 0 -78.5 -47.5t-89.5 -41.5q-37 8 -27.5 62.5z" />
<glyph unicode="&#xf4;" horiz-adv-x="890" d="M21 -129.5q-3 61.5 28 164.5q25 80 38 114.5t27.5 61.5t26.5 53q23 53 81.5 118.5t113.5 98.5q61 37 82.5 38t87.5 -34q72 -35 98.5 -34.5t89.5 -71.5q43 -47 55.5 -81t20.5 -118q27 -283 -199 -495l-100 -95h-162q-98 0 -135 8.5t-59.5 31t-51.5 87.5q-39 92 -42 153.5z M162 -80q-10 -88 45 -168q53 -78 113.5 -74.5t148.5 86.5q143 135 185 302.5t-48 263.5q-61 66 -159.5 38t-149.5 -126l-41 -76q-84 -158 -94 -246zM279 774q-6 25 20.5 63t118.5 132q63 63 116.5 109t65.5 46q31 2 69 -32.5t68 -92.5q16 -31 42 -64.5t44.5 -56t33.5 -44 t14 -38t-19 -26.5q-14 -10 -88 37t-74 65q0 14 -53 43q-41 20 -55.5 15.5t-59.5 -60.5q-61 -72 -104 -129q-92 -119 -139 33z" />
<glyph unicode="&#xf6;" horiz-adv-x="788" d="M26.5 -199q-10.5 41 9 105.5t93.5 212.5q31 63 97.5 144t112.5 139.5t46 89.5q0 14 2 26t6 19.5t8.5 12.5t13.5 6t14 2t19.5 -2t21.5 -4t25.5 -6t26.5 -9q55 -12 82 -35t68 -84q76 -113 87 -178.5t-26 -178.5q-51 -154 -124.5 -242.5t-213.5 -160.5q-94 -49 -163.5 -38 t-141.5 85q-53 55 -63.5 96zM178.5 -205q16.5 -31 93.5 -28q45 0 78 16t88 63q94 76 94 93.5t37 68.5q35 47 46.5 157t-15.5 157q-29 57 -71 48.5t-107 -79.5q-174 -197 -229 -369q-31 -96 -14.5 -127zM287 795.5q-33 46.5 12 89.5q20 23 33.5 21.5t50.5 -27.5 q39 -29 38 -56.5t-44 -46.5q-57 -27 -90 19.5zM618.5 898q-18.5 46 4.5 73q20 25 36.5 26.5t63.5 -16.5q39 -14 44 -46t-23.5 -57.5t-73.5 -25.5q-33 0 -51.5 46z" />
<glyph unicode="&#xf9;" horiz-adv-x="772" d="M22.5 -65.5q-16.5 196.5 57.5 444.5q58 191 76 211q20 27 53 23.5t61 -35.5q20 -23 21.5 -42.5t-10 -39t-38 -78t-48.5 -133.5q-23 -76 -29 -232.5t12 -185.5q18 -33 92 55q55 63 92 141l74 160q29 57 49 187q20 111 42 142.5t71 16.5q45 -10 65.5 -47t0.5 -71 q-18 -39 -16.5 -140.5t22.5 -173.5q88 -283 82 -321q-6 -31 -52.5 -39t-66.5 18q-18 25 -49 120t-31 130q0 70 -39 14q-18 -25 -43 -73q-55 -119 -118.5 -194t-116.5 -85q-61 -10 -99 0q-98 31 -114.5 227.5zM24.5 1006.5q-12.5 47.5 12.5 72.5q31 31 108.5 -23.5 t147.5 -156.5q18 -29 40.5 -58.5t38 -50t33 -43t25.5 -35t16.5 -27.5t7.5 -21.5t-5 -16.5q-23 -23 -95.5 35.5t-161 144.5t-118.5 107q-37 25 -49.5 72.5z" />
<glyph unicode="&#xfa;" horiz-adv-x="978" d="M28 -181q-24 83 27 257q27 90 48.5 164.5t35 123t23.5 87t14 59t7 35t4 20.5t3.5 10.5t4.5 8.5q8 14 67 8q41 -4 49 -15.5t6 -62.5q0 -74 -30 -156q-158 -436 -113 -481q14 -14 70.5 23t124.5 106q66 68 105.5 151t48.5 144t24.5 118.5t38.5 78.5q27 23 39 20.5t47 -37.5 l47 -47l-43 -121q-37 -104 -35 -222t41 -173q35 -49 31 -88t-45 -39q-35 0 -78 45t-43 83t-17 38q-23 0 -122 -88q-90 -82 -136.5 -104.5t-119.5 -26.5q-100 -2 -124 81zM479 740.5q0 19.5 19.5 45t58.5 48.5q35 23 95.5 68.5t104.5 79.5t52 34q12 0 34.5 16.5t42 32.5 t41 22.5t31.5 -12.5q10 -18 -77.5 -118.5t-193 -193.5t-134.5 -93q-18 0 -35.5 9t-28 25.5t-10.5 36z" />
<glyph unicode="&#xfb;" horiz-adv-x="954" d="M20 -258l7 207q4 123 11 171t28 68q32 37 32 82q0 35 36 162t36 146q0 31 12 43q16 16 64.5 12t66.5 -23q25 -20 20 -57t-20.5 -66.5t-33 -69.5t-17.5 -67q0 -37 -45 -180q-35 -109 -43 -204t14 -109q16 -10 82 47t66 80q0 14 36 54t36 60q0 16 35.5 72.5t45.5 112.5 q12 68 46 168q23 66 38 84t54 20q33 4 48 -4t27 -37q14 -29 11.5 -50.5t-29.5 -66.5q-45 -84 -43 -213t51 -233q29 -66 34 -91.5t-7 -41.5q-41 -47 -102.5 -12.5t-61.5 104.5q0 39 -27 74q-20 27 -26 24.5t-21 -41.5q-23 -57 -96.5 -147t-116.5 -113q-86 -45 -188 4z M342 951q25 56 127 165q84 88 118 112.5t68 20.5q39 -2 53.5 -23.5t47.5 -117.5q47 -137 116 -242q100 -152 33 -174q-18 -6 -102 77t-84 110q0 20 -47 87.5t-62.5 67.5t-91.5 -100q-59 -76 -94 -93.5t-68 15.5q-39 39 -14 95z" />
<glyph unicode="&#xfc;" horiz-adv-x="798" d="M23 -133q-6 57 45 391q10 70 41.5 169t31.5 144q0 63 22.5 74.5t76.5 -10.5q47 -18 54 -55t-24 -101q-53 -109 -89 -340t-5 -262q49 -49 189 164q162 244 161 373q0 68 37 100q27 25 38 24t44 -34q31 -33 35 -57.5t-8 -120.5q-12 -109 -5 -195t13 -153.5t0 -77.5 q-10 -16 -53 -17q-37 0 -59.5 31t-22.5 78q0 49 -31 26q-20 -14 -41 -55q-88 -162 -212 -222t-191 28q-43 55 -47 98zM309 913q-4 51 4 78q18 45 76 17q57 -31 60 -84q2 -6 0 -13q-4 -33 -16.5 -41t-53.5 -8t-53.5 8.5t-16.5 42.5zM619.5 837.5q-5.5 22.5 19.5 47.5 q43 45 100 0q51 -41 35 -90q-6 -25 -33 -41q-18 -10 -34.5 -5t-42.5 29q-39 37 -44.5 59.5z" />
<glyph unicode="&#x2000;" horiz-adv-x="790" />
<glyph unicode="&#x2001;" horiz-adv-x="1580" />
<glyph unicode="&#x2002;" horiz-adv-x="790" />
<glyph unicode="&#x2003;" horiz-adv-x="1580" />
<glyph unicode="&#x2004;" horiz-adv-x="526" />
<glyph unicode="&#x2005;" horiz-adv-x="395" />
<glyph unicode="&#x2006;" horiz-adv-x="263" />
<glyph unicode="&#x2007;" horiz-adv-x="263" />
<glyph unicode="&#x2008;" horiz-adv-x="197" />
<glyph unicode="&#x2009;" horiz-adv-x="316" />
<glyph unicode="&#x200a;" horiz-adv-x="87" />
<glyph unicode="&#x2010;" d="M55 469q37 35 78 27q25 -8 115 3t218 30.5t198 25.5q104 9 114 25q29 45 113 -29q96 -84 -51 -113q-37 -8 -148 -18q-119 -12 -225.5 -30.5t-162.5 -32t-105 -22.5t-79 -6t-59 19q-76 51 -6 121z" />
<glyph unicode="&#x2011;" d="M55 469q37 35 78 27q25 -8 115 3t218 30.5t198 25.5q104 9 114 25q29 45 113 -29q96 -84 -51 -113q-37 -8 -148 -18q-119 -12 -225.5 -30.5t-162.5 -32t-105 -22.5t-79 -6t-59 19q-76 51 -6 121z" />
<glyph unicode="&#x2012;" d="M55 469q37 35 78 27q25 -8 115 3t218 30.5t198 25.5q104 9 114 25q29 45 113 -29q96 -84 -51 -113q-37 -8 -148 -18q-119 -12 -225.5 -30.5t-162.5 -32t-105 -22.5t-79 -6t-59 19q-76 51 -6 121z" />
<glyph unicode="&#x2013;" horiz-adv-x="1065" d="M59 469q42 35 88 27q28 -8 129.5 3t246 30.5t223.5 25.5q117 9 129 25q32 45 127 -29q109 -84 -57 -113q-42 -8 -167 -18q-135 -12 -255 -30.5t-183 -32t-118.5 -22.5t-89.5 -6t-66 19q-86 51 -7 121z" />
<glyph unicode="&#x2014;" horiz-adv-x="2089" d="M97 469q83 35 176 27q56 -8 259 3t492 30.5t447 25.5q235 9 257 25q66 45 255 -29q217 -84 -115 -113q-83 -8 -334 -18q-268 -12 -508.5 -30.5t-367 -32t-237 -22.5t-178 -6t-133.5 19q-171 51 -13 121z" />
<glyph unicode="&#x201c;" horiz-adv-x="620" d="M20 1087q0 33 25.5 98.5t52.5 100.5q16 20 34 21.5t54 -17.5q31 -16 34 -66t-25 -89q-35 -45 -27 -92.5t57 -88.5l84 -67q18 -16 18.5 -30.5t-20 -24t-57.5 -13.5q-70 -6 -115 37q-41 37 -78 110.5t-37 120.5zM340 1137q-29 118 18 186q53 74 95 20q33 -43 32 -143 q0 -70 10.5 -99.5t51.5 -74.5q59 -68 53 -90q-10 -31 -56 -24.5t-95 44.5q-80 63 -109 181z" />
<glyph unicode="&#x201e;" horiz-adv-x="643" d="M21 -82q2 51 20 115q20 72 0 94q-20 18 -20 58.5t20 60.5q57 55 133 -35q88 -106 6 -248q-49 -86 -108 -106q-23 -8 -35 0q-18 10 -16 61zM392 -61.5q9 69.5 34 108.5q23 35 0 82q-18 39 -21 84t11 59q23 23 57.5 9.5t68 -42t57.5 -72.5t24 -83q0 -43 -43 -105.5 t-97.5 -100.5t-81.5 -21q-18 12 -9 81.5z" />
<glyph unicode="&#x2022;" horiz-adv-x="403" d="M20 387q0 17 37 76q29 49 72 57t133 -16q61 -16 83 -42t34 -95q6 -51 -1 -75t-46 -67q-119 -137 -217 -43q-33 31 -64 98.5t-31 106.5z" />
<glyph unicode="&#x202f;" horiz-adv-x="316" />
<glyph unicode="&#x205f;" horiz-adv-x="395" />
<glyph unicode="&#x20ac;" horiz-adv-x="1148" d="M29.5 532.5q23.5 26.5 109.5 26.5q84 0 107 14q18 12 66 83t48 85q0 18 103 124t164 151q43 33 76.5 44t89.5 11q63 0 87.5 -10t63.5 -53q84 -96 97.5 -153.5t-35.5 -115.5q-29 -33 -44.5 -20.5t-15.5 65.5q0 51 -36 115t-66 64q-31 0 -96.5 -29t-104.5 -60 q-61 -49 -125.5 -130.5t-50.5 -96.5q18 -18 53 2q86 45 152 -10q45 -35 24 -64q-12 -16 -43 -16q-23 0 -45 -6t-65 -20.5t-88 -26.5q-57 -16 -84 -50t-35 -106q-2 -25 17.5 -33t97.5 -14q121 -8 120.5 -34.5t-118.5 -53.5l-115 -29l12 -82q14 -113 106.5 -151.5t213.5 14.5 q135 61 188 91t121 81q80 59 114.5 56.5t34.5 -66.5q0 -39 -85 -114.5t-152 -98.5q-66 -20 -86 -37q-25 -20 -124 -44.5t-151 -24.5q-29 0 -52 5t-35.5 10t-40 19.5t-42.5 20.5q-31 12 -89 104t-58 125q0 41 -13.5 49.5t-52.5 -8.5q-43 -20 -80.5 11.5t-31.5 82.5 q4 31 19.5 40.5t68.5 15.5q59 8 70.5 17t11.5 56q0 35 -6 48.5t-21 9.5q-51 -12 -79.5 -4t-53.5 41q-39 53 -15.5 79.5z" />
<glyph unicode="&#x25fc;" horiz-adv-x="849" d="M0 0v850h850v-850h-850z" />
</font>
</defs>
</svg>
